<?xml version="1.0" encoding="UTF-8"?><svg id="Layer_1" xmlns="http://www.w3.org/2000/svg" xmlns:xlink="http://www.w3.org/1999/xlink" viewBox="0 0 198.17 264.74"><defs><style>.cls-1{fill:none;}.cls-2{letter-spacing:.1em;}.cls-3{letter-spacing:.1em;}.cls-4{letter-spacing:.1em;}.cls-5{letter-spacing:.1em;}.cls-6{letter-spacing:.1em;}.cls-7{clip-path:url(#clippath);}.cls-8{fill:#eae6e3;}.cls-9{fill:#231f20;}.cls-10{letter-spacing:.06em;}.cls-11{letter-spacing:.07em;}.cls-12{letter-spacing:.07em;}.cls-13{letter-spacing:.03em;}.cls-14{letter-spacing:.07em;}.cls-15{letter-spacing:0em;}.cls-16{letter-spacing:.07em;}.cls-17{fill:#010101;font-family:FONTSPRINGDEMO-FacundoRegular, 'FONTSPRING DEMO - Facundo';font-size:6.39px;}.cls-18{letter-spacing:.06em;}.cls-19{letter-spacing:0em;}.cls-20{letter-spacing:.08em;}</style><clipPath id="clippath"><rect class="cls-1" x="-5.1" y="-3.76" width="206.83" height="273.02"/></clipPath></defs><g class="cls-7"><rect class="cls-8" x="-.38" width="198.56" height="264.74"/><text class="cls-17" transform="translate(67.45 192.92)"><tspan class="cls-3" x="0" y="0">B</tspan><tspan class="cls-6" x="4.83" y="0">E</tspan><tspan class="cls-2" x="9.34" y="0"> </tspan><tspan class="cls-18" x="11.59" y="0">P</tspan><tspan class="cls-13" x="16.01" y="0">A</tspan><tspan class="cls-2" x="20.51" y="0">T</tspan><tspan class="cls-6" x="24.84" y="0">I</tspan><tspan class="cls-3" x="27.23" y="0">EN</tspan><tspan class="cls-16" x="37.43" y="0">T</tspan><tspan class="cls-20" x="41.56" y="0"> </tspan><tspan class="cls-3" x="43.66" y="0">W</tspan><tspan class="cls-6" x="50.28" y="0">I</tspan><tspan class="cls-3" x="52.67" y="0">T</tspan><tspan class="cls-19" x="57" y="0">H</tspan></text><text class="cls-17" transform="translate(79.14 200.6)"><tspan class="cls-12" x="0" y="0">Y</tspan><tspan class="cls-4" x="4.53" y="0">OU</tspan><tspan class="cls-3" x="15.95" y="0">RSEL</tspan><tspan class="cls-15" x="33.67" y="0">F</tspan><tspan x="37.4" y="0">.</tspan></text><text class="cls-17" transform="translate(60.43 208.27)"><tspan class="cls-3" x="0" y="0">N</tspan><tspan class="cls-14" x="5.68" y="0">O</tspan><tspan class="cls-2" x="11.43" y="0">T</tspan><tspan class="cls-6" x="15.76" y="0">H</tspan><tspan class="cls-2" x="21.43" y="0">ING</tspan><tspan class="cls-6" x="34.88" y="0" xml:space="preserve"> I</tspan><tspan class="cls-3" x="39.51" y="0">N</tspan><tspan class="cls-5" x="45.2" y="0"> </tspan><tspan class="cls-3" x="47.44" y="0">N</tspan><tspan class="cls-13" x="53.12" y="0">A</tspan><tspan class="cls-6" x="57.62" y="0">TU</tspan><tspan class="cls-3" x="67.43" y="0">R</tspan><tspan x="72.13" y="0">E</tspan></text><text class="cls-17" transform="translate(63.99 215.94)"><tspan class="cls-3" x="0" y="0">B</tspan><tspan class="cls-10" x="4.83" y="0">L</tspan><tspan class="cls-3" x="8.86" y="0">O</tspan><tspan class="cls-4" x="14.8" y="0">O</tspan><tspan class="cls-2" x="20.73" y="0">MS</tspan><tspan class="cls-11" x="31.36" y="0"> </tspan><tspan class="cls-3" x="33.44" y="0">AL</tspan><tspan class="cls-16" x="42.63" y="0">L</tspan><tspan class="cls-12" x="46.69" y="0"> </tspan><tspan class="cls-3" x="48.72" y="0">YEAR</tspan><tspan x="67.61" y="0">.</tspan></text><path class="cls-9" d="M97.99,142.56s-.03,.03-.05,.05c.08,.06,.16,.12,.24,.17,0,0,0,0,0-.01,0-.1-.05-.18-.19-.21m0,0s-.03,.03-.05,.05c.08,.06,.16,.12,.24,.17,0,0,0,0,0-.01,0-.1-.05-.18-.19-.21m0,0s-.03,.03-.05,.05c.08,.06,.16,.12,.24,.17,0,0,0,0,0-.01,0-.1-.05-.18-.19-.21m0,0s-.03,.03-.05,.05c.08,.06,.16,.12,.24,.17,0,0,0,0,0-.01,0-.1-.05-.18-.19-.21m0,0s-.03,.03-.05,.05c.08,.06,.16,.12,.24,.17,0,0,0,0,0-.01,0-.1-.05-.18-.19-.21m0,0s-.03,.03-.05,.05c.08,.06,.16,.12,.24,.17,0,0,0,0,0-.01,0-.1-.05-.18-.19-.21m0,0s-.03,.03-.05,.05c.08,.06,.16,.12,.24,.17,0,0,0,0,0-.01,0-.1-.05-.18-.19-.21m0,0s-.03,.03-.05,.05c.08,.06,.16,.12,.24,.17,0,0,0,0,0-.01,0-.1-.05-.18-.19-.21m0,0s-.03,.03-.05,.05c.08,.06,.16,.12,.24,.17,0,0,0,0,0-.01,0-.1-.05-.18-.19-.21m0,0s-.03,.03-.05,.05c.08,.06,.16,.12,.24,.17,0,0,0,0,0-.01,0-.1-.05-.18-.19-.21m0,0s-.03,.03-.05,.05c.08,.06,.16,.12,.24,.17,0,0,0,0,0-.01,0-.1-.05-.18-.19-.21m0,0s-.03,.03-.05,.05c.08,.06,.16,.12,.24,.17,0,0,0,0,0-.01,0-.1-.05-.18-.19-.21m0,0s-.03,.03-.05,.05c.08,.06,.16,.12,.24,.17,0,0,0,0,0-.01,0-.1-.05-.18-.19-.21m0,0s-.03,.03-.05,.05c.08,.06,.16,.12,.24,.17,0,0,0,0,0-.01,0-.1-.05-.18-.19-.21m0,0s-.03,.03-.05,.05c.08,.06,.16,.12,.24,.17,0,0,0,0,0-.01,0-.1-.05-.18-.19-.21m0,0s-.03,.03-.05,.05c.08,.06,.16,.12,.24,.17,0,0,0,0,0-.01,0-.1-.05-.18-.19-.21m0,0s-.03,.03-.05,.05c.08,.06,.16,.12,.24,.17,0,0,0,0,0-.01,0-.1-.05-.18-.19-.21m0,0s-.03,.03-.05,.05c.08,.06,.16,.12,.24,.17,0,0,0,0,0-.01,0-.1-.05-.18-.19-.21m0,0s-.03,.03-.05,.05c.08,.06,.16,.12,.24,.17,0,0,0,0,0-.01,0-.1-.05-.18-.19-.21m0,0s-.03,.03-.05,.05c.08,.06,.16,.12,.24,.17,0,0,0,0,0-.01,0-.1-.05-.18-.19-.21m0,0s-.03,.03-.05,.05c.08,.06,.16,.12,.24,.17,0,0,0,0,0-.01,0-.1-.05-.18-.19-.21m0,0s-.03,.03-.05,.05c.08,.06,.16,.12,.24,.17,0,0,0,0,0-.01,0-.1-.05-.18-.19-.21m1.09,1.1c-.07,.09-.13,.18-.2,.28-.1,.15-.22,.3-.33,.44-.07,.09-.13,.17-.2,.26-.01,.01-.02,.03-.03,.04,0,.01,.01,.02,.01,.03,.05,.14,.11,.28,.17,.42,.09-.09,.17-.18,.25-.28,.16-.19,.31-.4,.46-.61,.04-.05,.07-.1,.1-.15,.03-.05,.06-.1,.09-.14-.11-.09-.22-.18-.32-.28m-1.09-1.1s-.03,.03-.05,.05l-.34,.34c.06,.14,.12,.28,.18,.42l.05-.05c.16-.16,.3-.32,.34-.54,0,0,0,0,0-.01,0-.1-.05-.18-.19-.21m-37.67-9.22c-.16-.17-.33-.34-.49-.51-.16,0-.31,0-.47,0,.15,.16,.31,.31,.45,.48,.04,.05,.09,.1,.13,.15,.16,0,.32-.02,.47-.03-.03-.03-.07-.07-.1-.1m-1.1-1.13c-.1-.1-.2-.2-.31-.29-.04-.04-.08-.07-.12-.11-.11,.04-.21,.09-.32,.13,.13,.13,.26,.25,.4,.37,.04,.03,.08,.06,.11,.09,.1-.04,.21-.08,.31-.12-.02-.03-.05-.05-.07-.08m38.78,10.35s-.03,.03-.05,.05c.08,.06,.16,.12,.24,.17,0,0,0,0,0-.01,0-.1-.05-.18-.19-.21m0,0s-.03,.03-.05,.05c.08,.06,.16,.12,.24,.17,0,0,0,0,0-.01,0-.1-.05-.18-.19-.21m0,0s-.03,.03-.05,.05c.08,.06,.16,.12,.24,.17,0,0,0,0,0-.01,0-.1-.05-.18-.19-.21m0,0s-.03,.03-.05,.05c.08,.06,.16,.12,.24,.17,0,0,0,0,0-.01,0-.1-.05-.18-.19-.21m0,0s-.03,.03-.05,.05c.08,.06,.16,.12,.24,.17,0,0,0,0,0-.01,0-.1-.05-.18-.19-.21m0,0s-.03,.03-.05,.05c.08,.06,.16,.12,.24,.17,0,0,0,0,0-.01,0-.1-.05-.18-.19-.21m0,0s-.03,.03-.05,.05c.08,.06,.16,.12,.24,.17,0,0,0,0,0-.01,0-.1-.05-.18-.19-.21m0,0s-.03,.03-.05,.05c.08,.06,.16,.12,.24,.17,0,0,0,0,0-.01,0-.1-.05-.18-.19-.21m0,0s-.03,.03-.05,.05c.08,.06,.16,.12,.24,.17,0,0,0,0,0-.01,0-.1-.05-.18-.19-.21m0,0s-.03,.03-.05,.05c.08,.06,.16,.12,.24,.17,0,0,0,0,0-.01,0-.1-.05-.18-.19-.21m0,0s-.03,.03-.05,.05c.08,.06,.16,.12,.24,.17,0,0,0,0,0-.01,0-.1-.05-.18-.19-.21m0,0s-.03,.03-.05,.05c.08,.06,.16,.12,.24,.17,0,0,0,0,0-.01,0-.1-.05-.18-.19-.21m0,0s-.03,.03-.05,.05c.08,.06,.16,.12,.24,.17,0,0,0,0,0-.01,0-.1-.05-.18-.19-.21m0,0s-.03,.03-.05,.05c.08,.06,.16,.12,.24,.17,0,0,0,0,0-.01,0-.1-.05-.18-.19-.21m0,0s-.03,.03-.05,.05c.08,.06,.16,.12,.24,.17,0,0,0,0,0-.01,0-.1-.05-.18-.19-.21m0,0s-.03,.03-.05,.05c.08,.06,.16,.12,.24,.17,0,0,0,0,0-.01,0-.1-.05-.18-.19-.21m0,0s-.03,.03-.05,.05c.08,.06,.16,.12,.24,.17,0,0,0,0,0-.01,0-.1-.05-.18-.19-.21m0,0s-.03,.03-.05,.05c.08,.06,.16,.12,.24,.17,0,0,0,0,0-.01,0-.1-.05-.18-.19-.21m0,0s-.03,.03-.05,.05c.08,.06,.16,.12,.24,.17,0,0,0,0,0-.01,0-.1-.05-.18-.19-.21m0,0s-.03,.03-.05,.05c.08,.06,.16,.12,.24,.17,0,0,0,0,0-.01,0-.1-.05-.18-.19-.21m-4.93-23.95c-.07-.04-.14-.08-.21-.13-.14,.03-.29,.07-.44,.1,.24,.13,.47,.26,.7,.42,.13-.03,.26-.05,.4-.08,.02,0,.04,0,.06,0-.17-.1-.34-.21-.51-.31m4.93,23.95s-.03,.03-.05,.05c.08,.06,.16,.12,.24,.17,0,0,0,0,0-.01,0-.1-.05-.18-.19-.21m-1.24-21.48c-.08-.01-.16-.02-.24-.03,.02,.01,.04,.03,.06,.05,.03,.02,.1,0,.18-.01,0,0,0,0,0,0m-3.69-2.47c-.07-.04-.14-.08-.21-.13-.14,.03-.29,.07-.44,.1,.24,.13,.47,.26,.7,.42,.13-.03,.26-.05,.4-.08,.02,0,.04,0,.06,0-.17-.1-.34-.21-.51-.31m4.93,23.95s-.03,.03-.05,.05c.08,.06,.16,.12,.24,.17,0,0,0,0,0-.01,0-.1-.05-.18-.19-.21"/><path class="cls-9" d="M150.96,123.09c-.14,.03-.25,.12-.35,.21-.52,.43-1.1,.77-1.65,1.16-.28,.2-.58,.36-.88,.53-.59,.33-1.17,.66-1.77,.97-.4,.2-.81,.38-1.23,.54-.85,.34-1.72,.64-2.61,.85-.62,.15-1.25,.27-1.87,.38-.39,.07-.78,.16-1.16,.25-.55,.13-1.1,.28-1.64,.45-.58,.17-1.12,.43-1.64,.75-.57,.34-1.06,.77-1.55,1.2-.52,.46-1,.95-1.48,1.44-.66,.7-1.3,1.43-1.96,2.13-.2,.21-.44,.39-.66,.58-.13,.12-.26,.22-.39,.34-.51,.45-1.03,.87-1.59,1.24-.04,.03-.08,.06-.12,.09-.2,.13-.41,.26-.54,.44-.03,.1,0,.16,.06,.22,.04,.01,.08,.04,.13,.05,.03,0,.07,0,.09,0,.03,0,.06,0,.08,0,.38-.25,.74-.5,1.1-.72,.51-.31,1.07-.48,1.63-.66,.61-.19,1.22-.36,1.86-.44,.41-.05,.82-.1,1.23-.14,.31-.03,.6-.14,.92-.14,.36,0,.72-.08,1.08-.07,.47,0,.93-.08,1.39-.12,.65-.07,1.3-.18,1.94-.32,.96-.21,1.83-.6,2.62-1.18,.78-.58,1.57-1.13,2.33-1.72,.67-.51,1.3-1.08,1.87-1.7,.69-.77,1.41-1.51,2.02-2.35,.21-.29,.47-.55,.69-.84,.55-.73,1.16-1.41,1.67-2.17,.22-.32,.49-.62,.74-.95q-.11-.25-.35-.3m-18.94,10.66c.26-.29,.54-.58,.8-.87,.17-.17,.33-.36,.5-.53,.42-.43,.84-.86,1.28-1.28,.51-.48,1.03-.96,1.63-1.34,.26-.17,.54-.31,.79-.49,.13-.09,.26-.16,.41-.21,.57-.19,1.13-.43,1.73-.51,.02,0,.03,0,.05-.01,.82-.28,1.68-.39,2.52-.56,.5-.1,1.02-.19,1.51-.33,.51-.14,1.01-.33,1.51-.52,.76-.29,1.52-.57,2.22-.97,.33-.18,.66-.38,.99-.57,.05-.03,.1-.03,.14,0,0,.1-.08,.14-.15,.19-.25,.21-.51,.41-.77,.62-.43,.36-.83,.77-1.31,1.09-.3,.2-.59,.42-.88,.64-.3,.23-.59,.47-.9,.69-.39,.28-.78,.57-1.2,.81-.75,.42-1.57,.71-2.4,.95-.8,.23-1.58,.5-2.36,.77-1.22,.43-2.41,.94-3.61,1.45-.38,.16-.75,.34-1.13,.5-.5,.22-.99,.48-1.46,.78-.05,.03-.12,.09-.2,0,.08-.1,.16-.21,.25-.31m14.69-5.35c-.45,.52-.9,1.04-1.42,1.5-.07,.06-.13,.11-.19,.18-.3,.34-.65,.62-1.03,.86-.09,.06-.17,.12-.24,.2-.08,.09-.17,.16-.27,.23-.32,.21-.63,.43-.93,.66-.62,.5-1.26,.96-1.97,1.33-.35,.18-.72,.34-1.1,.44-.52,.14-1.03,.27-1.57,.33-.39,.04-.78,.1-1.17,.15-.36,.04-.72,.09-1.08,.1-.5,.01-1,.04-1.49,.14-.07,.01-.14,.01-.2,.02-.66,.11-1.34,.14-2,.29-.17,.04-.34,.05-.51,.08-.01,0-.03-.01-.05-.03,.03-.03,.06-.08,.09-.1,.21-.12,.42-.24,.63-.35,.3-.17,.59-.35,.9-.5,.36-.17,.71-.34,1.08-.51,1.07-.48,2.15-.94,3.24-1.37,.31-.12,.62-.22,.93-.33,.49-.17,.98-.34,1.47-.5,.34-.12,.68-.25,1.04-.33,.64-.15,1.26-.39,1.85-.67,.32-.16,.64-.32,.95-.52,.53-.35,1.05-.73,1.56-1.11,.21-.15,.39-.34,.61-.48,.42-.27,.81-.59,1.19-.91,.31-.27,.62-.55,.95-.8,.21-.16,.39-.33,.58-.52,.07-.07,.14-.15,.22-.21,.04-.03,.11-.08,.16,.02-.74,.91-1.48,1.82-2.24,2.71"/><path class="cls-9" d="M128.39,136.2c-.2,.13-.41,.26-.54,.44-.03,.1,0,.16,.06,.22,.04,.01,.08,.04,.13,.05,.03,0,.07,0,.09,0,0,0,0-.01,0-.01,.12-.26,.24-.52,.37-.78-.04,.03-.08,.06-.12,.09"/><path class="cls-9" d="M60.31,133.34c-.16-.17-.33-.34-.49-.51-.18-.18-.36-.36-.54-.55-.02-.03-.05-.05-.07-.08-.1-.1-.2-.2-.31-.29-.04-.04-.08-.07-.12-.11-.11,.04-.21,.09-.32,.13,.13,.13,.26,.25,.4,.37,.04,.03,.08,.06,.1,.09,0,0,.01,.01,.02,.02,.11,.15,.24,.29,.37,.42,.15,.16,.31,.31,.45,.48,.04,.05,.09,.1,.13,.15,.16,0,.32-.02,.47-.03-.03-.03-.07-.07-.1-.1m23.88,21.6s0-.03,0-.03c-.08-.07-.03-.16-.04-.25-.01-.24-.02-.48-.03-.72-.01-.16-.04-.32,.01-.49-.05-.06-.07-.12-.07-.19-.02-.42-.15-.82-.19-1.23,0-.04-.01-.09-.03-.13-.1-.29-.18-.59-.21-.89,0-.03,0-.07-.02-.1-.13-.36-.17-.74-.29-1.11-.03-.09-.08-.19-.08-.28-.02-.32-.12-.62-.17-.94-.05-.27-.1-.54-.15-.81,0-.02-.01-.04-.02-.06-.09-.23-.12-.47-.17-.7-.04-.23-.1-.45-.18-.66-.1-.26-.15-.55-.29-.8-.02-.22-.17-.4-.24-.59q-.13-.04-.23,.01c.01,.13,.02,.26,.04,.39,.01,.13,.03,.26,.03,.4,0,.1,0,.21,0,.32,0,.12,.01,.24,.02,.36,.03,.45,.09,.89,.07,1.34-.02,.39-.05,.78-.09,1.18-.02,.21-.04,.41-.03,.62,.01,.2-.03,.39-.04,.59-.01,.15-.03,.3-.05,.46-.04,.3-.08,.61-.13,.91-.04,.21-.08,.43-.13,.64-.06,.23-.07,.47-.13,.7-.07,.23-.15,.46-.16,.7-.15,.43-.22,.89-.44,1.3-.03,.06-.05,.12-.06,.18-.01,.06-.03,.11-.06,.15-.11,.13-.16,.28-.24,.43-.03,.07-.07,.14-.11,.2-.08,.14-.18,.27-.25,.42-.12,.26-.26,.51-.39,.76-.09,.16-.18,.32-.26,.49-.06,.13-.12,.26-.18,.39-.06,.12-.1,.25-.18,.35-.09,.12-.1,.26-.17,.39-.11,.2-.2,.42-.28,.63-.08,.22-.13,.44-.2,.66-.06,.19-.09,.38-.11,.58-.01,.19-.06,.39-.09,.58-.01,.05-.03,.11-.03,.16,0,.17-.04,.35-.07,.52-.05,.3-.07,.61-.06,.91,0,.17-.03,.35,.03,.51,.01,.04,0,.09,0,.13-.03,.09-.01,.17,0,.26,.01,.14,.02,.28,.03,.42-.14,.18-.29,.34-.42,.52-.13,.18-.25,.38-.38,.56-.05-.07-.04-.14-.03-.22,.05-.27,.08-.54,.1-.81,.03-.29,.01-.59,.11-.87,.07-.2,.1-.4,.12-.61,.05-.35,.15-.7,.21-1.06,.04-.19,.09-.38,.06-.58,0-.04-.01-.09,0-.13,.07-.32,.11-.64,.15-.97,.04-.34,.06-.67,.05-1.01,0-.16-.06-.31-.01-.46,.04-.14,0-.26-.06-.37,.07-.11,.05-.23,.07-.33,.03-.2,.01-.4-.05-.59-.1-.29-.11-.59-.19-.88-.07-.27-.02-.57-.14-.84-.01-.03-.01-.07-.01-.1,0-.39-.14-.75-.22-1.12-.08-.33-.21-.64-.25-.98-.03-.17-.08-.34-.11-.51,0-.05-.03-.11-.04-.16-.09-.32-.22-.64-.35-.95-.18-.4-.38-.81-.61-1.2-.14-.24-.27-.5-.39-.75-.13-.26-.2-.56-.42-.77-.04-.04-.06-.09-.08-.14-.07-.17-.15-.34-.25-.5-.09-.16-.17-.32-.26-.49-.2-.39-.46-.74-.74-1.08-.22-.27-.46-.52-.69-.79-.27-.32-.55-.63-.84-.93-.21-.21-.41-.43-.6-.66-.21-.25-.45-.48-.67-.73-.16-.19-.33-.38-.49-.56-.04-.2-.12-.38-.22-.55-.05-.09-.09-.17-.14-.26-.1,.01-.2,.02-.3,.04,.01,.02,.03,.04,0,.08-.02,0-.05,0-.06,0-.02-.02-.04-.04-.05-.05-.2,.03-.4,.08-.59,.14,.06,.05,.13,.11,.19,.16,.16,.12,.26,.3,.45,.38,.01,0,.02,.02,.02,.03,.17,.22,.37,.4,.56,.6,.24,.26,.48,.51,.72,.77,.2,.21,.38,.43,.58,.64,.25,.27,.51,.54,.78,.8,.23,.22,.4,.5,.66,.7,.03,.02,.04,.05,.07,.08,.23,.23,.43,.5,.62,.76,.07,.1,.14,.19,.21,.3,.34,.52,.57,1.11,.88,1.65,.17,.29,.31,.6,.47,.9,.18,.35,.4,.68,.56,1.04,.13,.29,.29,.57,.42,.86,.01,.03,.02,.06-.04,.1-.04-.04-.08-.09-.13-.14-.13-.13-.26-.26-.41-.39-.37-.31-.75-.61-1.12-.93-.1-.08-.21-.17-.28-.27-.2-.28-.44-.52-.71-.74-.04-.03-.08-.07-.12-.11-.14-.13-.27-.26-.41-.39-.14-.14-.3-.26-.45-.38-.15-.11-.29-.23-.44-.34-.28-.2-.56-.39-.84-.58-.27-.18-.53-.36-.81-.52-.38-.22-.75-.44-1.14-.63-.41-.21-.86-.34-1.26-.55-.02-.01-.04-.03-.06-.03-.13-.01-.25-.07-.37-.12-.33-.13-.67-.19-1.01-.29-.25-.07-.51-.12-.77-.17-.5-.1-.98-.3-1.46-.47-.24-.08-.47-.18-.7-.28-.24-.1-.48-.21-.71-.33-.26-.14-.55-.22-.82-.34-.02-.01-.04-.02-.06-.03-.37-.1-.74-.21-1.11-.31-.19-.05-.38-.12-.55-.2-.17-.08-.35-.13-.54-.18-.05,.03-.11,.07-.17,.1-.01,.01-.02,.04-.04,.06,0,.03,0,.06,0,.08,.09,.12,.25,.16,.35,.25,.3,.26,.62,.49,.88,.79,.21,.25,.45,.48,.67,.73,.26,.29,.49,.59,.78,.84,.17,.15,.34,.29,.48,.46,.18,.21,.38,.39,.59,.58,.44,.4,.91,.79,1.36,1.19,.11,.09,.21,.18,.34,.25,.08,.04,.15,.1,.21,.16,.28,.23,.58,.43,.89,.61,.29,.16,.56,.34,.89,.41,.04,.01,.08,.04,.12,.06,.23,.16,.49,.24,.75,.34,.24,.1,.51,.14,.75,.23,.2,.07,.41,.06,.59,.17,.17,.01,.32,.08,.48,.11,.3,.05,.6,.09,.9,.16,.37,.08,.72,.16,1.09,.22,.32,.05,.61,.16,.93,.2,.34,.04,.69,.09,1.04,.13,.24,.03,.48,.04,.71,.12,.11,.04,.24,.05,.35,.1,.37,.16,.73,.35,1.11,.47,.17,.17,.35,.29,.46,.46,.13,.3,.13,.6,.23,.88,0,.18,.09,.34,.12,.51,.05,.28,.11,.56,.16,.84,0,.04,0,.09,.03,.13,.1,.19,.06,.42,.16,.6,.01,.33,.17,.64,.17,.97,0,.16,.09,.29,.1,.44,.02,.21,.02,.42,.07,.63,.04,.21,.03,.41,.05,.61,0,.08,0,.15,0,.23-.03,.27-.08,.54-.05,.82-.05,.22,0,.44,0,.65,0,.05-.01,.11-.02,.16-.03,.19-.08,.39-.09,.58-.05,.6-.17,1.19-.32,1.77-.1,.38-.16,.77-.22,1.16-.03,.17-.01,.33-.03,.49-.03,.39-.12,.78-.17,1.17-.04,.38-.12,.75-.18,1.13-.01,.09-.03,.17-.04,.26,0,.09,.01,.19-.02,.26-.04,.1,0,.21-.04,.29-.05,.09,.05,.17,0,.26,.02,.25-.04,.5-.01,.75-.06,.35,.02,.7,.04,1.05,0,.07,0,.13,0,.2,0,.03,0,.06-.03,.07-.02-.01-.05-.02-.05-.03-.21-.32-.42-.64-.56-1-.05-.12-.09-.22-.07-.35,.03-.06,.06-.12,.09-.17-.04-.08-.07-.15-.05-.23,.07-.34,.03-.69,.08-1.04,.02-.12-.03-.24,.01-.36,.04-.12-.04-.23-.01-.35,.03-.11-.01-.24-.02-.36,0-.11-.02-.22,.01-.32,.01-.05-.03-.1-.05-.16,.07-.25,.02-.51-.04-.75-.05-.18-.07-.36-.1-.55-.02-.16-.04-.32-.1-.48-.06-.2-.14-.39-.15-.59-.08-.13-.13-.25-.17-.38-.04-.13-.09-.27-.15-.4-.14-.31-.29-.61-.43-.91-.13-.26-.27-.5-.39-.76-.15-.31-.32-.62-.51-.91-.04-.06-.06-.14-.1-.21-.04-.07-.07-.14-.12-.19-.14-.14-.25-.31-.35-.47-.06-.09-.13-.18-.19-.27-.26-.36-.56-.67-.89-.96-.17-.16-.3-.35-.49-.48-.13-.08-.26-.17-.38-.26-.25-.2-.51-.39-.75-.6-.23-.22-.55-.34-.74-.6-.01-.02-.03-.03-.05-.04-.19-.08-.33-.25-.49-.38-.33-.27-.68-.51-1.05-.72-.29-.16-.58-.31-.86-.48-.43-.27-.85-.55-1.27-.83-.25-.16-.49-.34-.69-.55-.16-.17-.33-.32-.51-.47-.11-.1-.22-.18-.32-.29-.1-.1-.23-.17-.34-.26-.08-.06-.17-.1-.26-.14-.04-.01-.09-.01-.13,.03,.04,.05,.1,.09,.11,.15,.01,.13,.1,.21,.17,.31,.09,.12,.2,.24,.27,.38,.15,.26,.33,.49,.51,.73,.05,.07,.1,.14,.15,.21,.32,.45,.64,.89,.93,1.36,.05,.08,.1,.17,.16,.25,.23,.32,.47,.64,.7,.95,.02,.03,.04,.06,.05,.09,.17,.31,.3,.65,.44,.98,.12,.28,.22,.57,.37,.84,.07,.13,.16,.27,.19,.42,.05,.22,.16,.41,.22,.62,.06,.21,.14,.42,.24,.61,.03,.06,.06,.12,.08,.18,.17,.52,.39,1.02,.59,1.53,.11,.26,.24,.52,.36,.77,.14,.29,.27,.6,.44,.88,.2,.33,.35,.68,.57,1,.09,.25,.26,.46,.41,.67,.26,.37,.54,.72,.83,1.06,.26,.31,.52,.62,.83,.9,.32,.29,.59,.61,.93,.87,.09,.08,.21,.11,.3,.2,.14,.15,.33,.26,.49,.39,.19,.16,.39,.29,.61,.4,.16,.08,.31,.16,.45,.24,.14,.2,.28,.38,.39,.58,.28,.48,.55,.97,.87,1.43,.08,.11,.14,.23,.17,.35,.04,.16,.08,.32,.1,.48,.02,.13,.05,.25,.07,.38,.02,.13,.05,.26,.11,.37,.06,.12,.07,.25,.12,.38,.06,.18,.16,.34,.22,.51,.05,.13,.13,.25,.2,.37,.07-.04,.11-.09,.13-.17-.02-.06-.04-.13-.06-.21-.02-.08-.03-.17-.07-.25-.1-.22-.15-.46-.24-.68-.06-.16-.09-.31-.11-.48-.01-.08,0-.16-.04-.22-.11-.25-.06-.52-.18-.77-.03-.29-.06-.57-.09-.85-.02-.2,.01-.4,0-.59-.03-.35-.06-.7-.03-1.05,.01-.12,0-.24,.03-.36,.03-.13,.01-.26,.02-.38,0-.25,.08-.49,.09-.75,.01-.22,.07-.43,.26-.59,.07-.05,.11-.13,.14-.22,.1-.22,.22-.43,.33-.65,.08-.17,.19-.32,.33-.44,.18-.13,.4-.11,.58-.14,.13-.06,.24-.12,.36-.15,.13-.04,.24-.1,.35-.17,.25-.17,.53-.31,.8-.45,.21-.1,.4-.23,.58-.38,.16-.13,.33-.26,.49-.37,.04-.05,.07-.1,.1-.14,.12-.15,.24-.31,.38-.45,.16-.14,.24-.34,.38-.49,.15-.16,.28-.34,.37-.46,.13-.26,.21-.47,.33-.65,.18-.29,.3-.61,.46-.91,.08-.16,.12-.33,.2-.48,.16-.3,.23-.64,.35-.95-.05-.14,.11-.23,.08-.37,.06-.21,.07-.43,.11-.64,.07-.34,.09-.69,.12-1.04,.01-.11,.03-.22,.03-.32,0-.11,0-.22,.02-.32,.02-.21-.03-.42,.01-.62m-22.62-10.77c.12,.03,.24,.06,.34,.1,.3,.14,.61,.23,.91,.37,.14,.06,.28,.12,.41,.19,.24,.14,.5,.22,.75,.33,.32,.14,.66,.22,.99,.36,.15,.06,.32,.08,.47,.14,.16,.06,.34,.09,.5,.13,.42,.11,.86,.19,1.28,.31,.3,.09,.6,.22,.89,.34,.47,.2,.94,.42,1.4,.64,.25,.12,.48,.26,.72,.4,.33,.19,.66,.38,.99,.59,.2,.13,.4,.27,.59,.4,.26,.18,.53,.36,.78,.55,.17,.12,.34,.25,.48,.4,.09,.1,.26,.14,.33,.33-.31-.18-.59-.34-.89-.43-.2-.06-.4-.11-.6-.16-.25-.06-.49-.14-.72-.23-.2-.08-.42-.14-.62-.22-.23-.1-.46-.21-.67-.34-.33-.2-.7-.33-1.04-.5-.1-.05-.22-.1-.33-.16-.29-.13-.58-.24-.88-.35-.26-.09-.54-.17-.8-.29-.35-.16-.7-.31-1.04-.48-.26-.13-.54-.25-.8-.37-.42-.2-.84-.43-1.23-.69-.03-.02-.05-.04-.08-.06-.2-.1-.38-.22-.56-.34-.18-.12-.38-.22-.58-.31-.23-.1-.44-.24-.66-.37-.13-.08-.25-.17-.38-.26,.02-.01,.04-.03,.06-.03m12.98,7.07c-.2-.02-.41-.04-.57-.11-.41-.01-.78-.07-1.14-.16-.51-.13-1.02-.26-1.54-.36-.18-.04-.36-.09-.54-.13-.18-.04-.37-.05-.55-.1-.28-.07-.55-.13-.83-.21-.22-.07-.44-.13-.66-.18-.15-.04-.29-.11-.43-.16-.38-.15-.74-.32-1.12-.48-.24-.1-.47-.23-.7-.37-.26-.16-.51-.34-.77-.51-.02-.01-.04-.02-.06-.04-.53-.41-1.08-.8-1.57-1.25-.27-.24-.54-.48-.81-.73-.14-.13-.27-.26-.4-.39-.23-.23-.48-.44-.7-.69-.1-.12-.21-.22-.31-.34-.08-.09-.17-.17-.25-.26-.03-.03-.07-.05-.05-.11,.01-.01,.03-.01,.05,0,.27,.17,.54,.33,.83,.47,.22,.11,.45,.24,.65,.38,.2,.14,.41,.26,.62,.37,.26,.13,.51,.29,.78,.43,.24,.13,.47,.24,.71,.36,.12,.06,.24,.12,.35,.17,.21,.1,.42,.19,.62,.3,.2,.1,.4,.18,.6,.27,.39,.17,.8,.29,1.19,.46,.29,.12,.58,.27,.87,.39,.05,.02,.1,.05,.15,.07,.18,.08,.36,.15,.53,.26,.12,.09,.28,.13,.41,.2,.26,.14,.54,.23,.82,.33,.33,.11,.67,.2,1.01,.28,.18,.04,.36,.09,.54,.14,.29,.08,.55,.2,.8,.36,.22,.14,.45,.27,.67,.42,.19,.12,.38,.25,.57,.39,.25,.18,.5,.36,.74,.55,.04,.03,.07,.06,.15,.14-.29-.01-.48-.13-.7-.15m.48,16.41s-.05,0-.06-.01c-.14-.1-.29-.19-.43-.3-.14-.1-.27-.23-.42-.31-.08-.15-.26-.2-.37-.32-.07-.07-.17-.11-.24-.17-.19-.18-.38-.36-.56-.55-.38-.37-.72-.77-1.06-1.17-.42-.5-.84-1.01-1.16-1.6-.08-.16-.17-.31-.28-.44-.03-.04-.05-.07-.07-.11-.24-.54-.53-1.05-.79-1.59-.14-.3-.29-.61-.42-.92-.06-.14-.09-.29-.15-.43-.2-.45-.38-.91-.56-1.36-.04-.24-.16-.45-.24-.68-.07-.21-.18-.39-.28-.59-.05-.11-.09-.22-.13-.33-.17-.44-.32-.88-.54-1.3-.1-.19-.23-.37-.35-.55-.25-.35-.51-.68-.75-1.03-.22-.31-.47-.61-.7-.91-.03-.03-.07-.06-.05-.11,.03-.04,.06,0,.08,.01,.23,.2,.46,.4,.68,.61,.33,.31,.64,.63,.96,.94,.07,.07,.14,.14,.2,.21,.17,.18,.34,.38,.51,.55,.17,.17,.33,.35,.48,.54,.2,.25,.39,.5,.59,.75,.18,.23,.35,.47,.54,.7,.12,.14,.2,.32,.34,.44,.05,.18,.22,.29,.28,.47,.24,.29,.4,.63,.61,.94,.2,.3,.35,.63,.5,.96,.14,.33,.29,.66,.42,.99,.07,.16,.13,.32,.19,.49,.2,.52,.42,1.03,.66,1.53,.17,.35,.33,.71,.49,1.07,.11,.26,.24,.51,.39,.76,.14,.25,.28,.5,.43,.74,.36,.58,.73,1.15,1.1,1.72,.07,.11,.15,.21,.22,.31-.02,.03-.04,.04-.05,.05m.54-.82c-.04,.11,0,.24-.04,.36-.03,.07,0,.15,0,.23,0,.05-.02,.08-.07,.11-.06,0-.09-.05-.12-.09-.24-.37-.47-.74-.7-1.11-.22-.34-.41-.7-.66-1.03-.08-.1-.06-.24-.17-.31-.1-.22-.25-.41-.34-.64-.06-.17-.19-.32-.22-.51-.15-.26-.24-.54-.36-.81-.17-.41-.36-.82-.52-1.24-.11-.27-.21-.55-.3-.83-.07-.21-.16-.4-.26-.6-.06-.12-.11-.24-.13-.39-.17-.23-.26-.47-.37-.71-.05-.12-.11-.24-.18-.35-.22-.35-.44-.7-.68-1.04-.15-.22-.29-.44-.44-.65-.2-.29-.41-.57-.64-.83-.15-.17-.29-.36-.43-.54-.21-.28-.43-.55-.67-.81-.19-.2-.37-.4-.55-.61-.02-.02-.05-.04-.03-.08,.03-.03,.06-.01,.09,0,.53,.29,1.03,.64,1.49,1.04,.16,.14,.33,.26,.46,.42,.08,.1,.2,.16,.3,.25,.21,.17,.43,.34,.64,.5,.21,.16,.41,.33,.62,.49,.18,.14,.35,.3,.51,.46,.22,.23,.44,.46,.64,.7,.17,.2,.33,.41,.47,.64,.17,.28,.35,.55,.55,.81,.1,.13,.16,.29,.25,.42,.11,.17,.16,.38,.3,.54,.07,.3,.32,.52,.38,.83,.08,.11,.13,.25,.19,.37,.12,.25,.21,.51,.33,.75,.12,.24,.15,.51,.29,.73,.03,.22,.14,.42,.15,.64,.01,.12,.03,.23,.08,.35,.05,.13,.05,.28,.06,.42,0,.08,0,.16,.07,.22-.05,.14-.03,.28-.03,.43,.01,.15,.03,.3,0,.46-.02,.1,0,.22,.01,.33,0,.12,.04,.25,.02,.36-.02,.11,.04,.21,0,.32m2.85-3.51c.01-.13-.02-.26-.04-.39-.01-.14-.05-.28,0-.43,.02-.05,0-.11,0-.16,0-.07-.02-.14,0-.2,.04-.17,.01-.35,.03-.52,.02-.15,.04-.31,.08-.45,.09-.26,.11-.53,.18-.8,.07-.26,.13-.53,.21-.79,.05-.16,.12-.31,.18-.46,.06-.14,.13-.28,.19-.42,.01-.03,.02-.06,.04-.09,.24-.39,.38-.84,.64-1.22,.07-.1,.11-.22,.17-.32,.27-.43,.5-.87,.71-1.33,.13-.27,.28-.52,.37-.81,.05-.16,.11-.31,.15-.47,.1-.36,.18-.72,.28-1.08,.03-.09,.05-.19,.05-.29,0-.04,0-.09,.02-.13,.13-.39,.18-.79,.24-1.19,.07-.43,.14-.86,.2-1.29,.02-.15,.02-.31,.04-.46,.05-.41-.02-.83,.07-1.24-.04-.31,.03-.61,0-.92-.02-.23,.02-.46,0-.69-.03-.26-.05-.52-.08-.79,0-.05-.02-.11,.01-.16,.12,.27,.21,.55,.24,.85,.03,.28,.05,.56,.13,.84,.02,.07,.02,.15,.03,.23,.03,.33,.07,.66,.09,.99,.01,.13,.05,.26,0,.39,.07,.12,.04,.25,.03,.38,0,.1,0,.22,.05,.32,.03,.08,.05,.18,.04,.26-.04,.2,0,.39,.01,.59,.02,.19,.04,.37,0,.56-.01,.07,0,.13,0,.2,.04,.43-.02,.85-.06,1.27-.03,.36-.12,.71-.17,1.06-.04,.28-.12,.55-.19,.83-.08,.32-.17,.63-.26,.95-.06,.2-.12,.4-.19,.59-.09,.26-.16,.52-.24,.78-.11,.35-.24,.7-.37,1.05-.05,.14-.11,.29-.15,.43-.09,.3-.23,.57-.37,.85-.03,.07-.07,.14-.1,.21-.26,.69-.6,1.34-.97,1.97-.16,.27-.32,.53-.5,.78-.18,.25-.39,.48-.59,.71-.04,.05-.11,.07-.15,.1-.08-.01-.08-.06-.07-.1m5.33-7.49c-.03,.32-.04,.63-.09,.95-.01,.08-.02,.17-.04,.26-.03,.14-.06,.28-.04,.41-.04,.13-.08,.24-.11,.36-.03,.16-.08,.32-.12,.47-.13,.41-.33,.79-.45,1.2-.04,.14-.17,.23-.2,.38-.19,.28-.31,.6-.47,.9-.1,.18-.2,.35-.33,.52-.19,.25-.38,.51-.58,.75-.14,.17-.26,.36-.42,.51-.33,.32-.66,.64-1.08,.85-.26,.13-.53,.26-.78,.44-.04,.03-.09,.06-.14,.08-.13,.06-.26,.12-.39,.18-.02-.03-.04-.06-.06-.09,.07-.09,.13-.2,.21-.28,.21-.2,.39-.41,.54-.66,0-.01,.01-.02,.02-.03,.44-.46,.74-1.01,1.04-1.55,.24-.42,.47-.84,.67-1.28,.13-.29,.27-.57,.39-.87,.12-.3,.25-.59,.34-.89,.13-.45,.36-.87,.43-1.34,.17-.37,.25-.77,.41-1.14,.06-.14,.09-.29,.14-.44,.01-.03,0-.07,.02-.1,.13-.31,.17-.65,.26-.98,.08-.29,.11-.58,.16-.87,0-.04,0-.09,.01-.13,.09-.3,.07-.6,.09-.91,.02-.27-.01-.55,0-.82,.01-.29-.01-.57-.01-.85,0-.02,.01-.04,.01-.07,.01,.02,.03,.03,.03,.05,.05,.25,.07,.5,.16,.74,.09,.24,.07,.5,.17,.73,.03,.07,0,.15,.01,.22,0,.06,.03,.13,.04,.19,.02,.13,.04,.26,.05,.39,0,.13,.05,.26,.09,.39-.02,.13-.04,.27-.02,.42,.02,.19,.04,.39,0,.59-.01,.09,0,.19,.02,.29,.05,.34,.03,.68,0,1.01m-15.14-14.79c-.3-.26-.6-.51-.93-.74-.18-.12-.36-.25-.48-.4-.12-.08-.22-.14-.32-.21-.2-.15-.39-.31-.61-.45-.3-.19-.6-.38-.92-.55-.1-.05-.2-.09-.29-.16-.14-.11-.3-.17-.44-.28-.18-.02-.28-.19-.45-.24-.11-.04-.2-.14-.32-.17-.3-.1-.55-.27-.81-.44-.24-.16-.48-.28-.74-.39-.21-.09-.43-.16-.63-.27-.09-.05-.18-.1-.28-.1-.21,0-.38-.09-.55-.19-.46-.25-.94-.47-1.43-.65-.09-.03-.19-.06-.28-.09-.22-.07-.45-.11-.64-.23-.12-.08-.26-.12-.4-.16-.2-.05-.4-.1-.59-.2-.06-.02-.12-.04-.19-.05-.11-.03-.21-.05-.32-.08-.23-.07-.46-.15-.7-.17-.21-.02-.42-.03-.62-.04-.38-.02-.76-.08-1.14-.09-.29-.01-.59-.08-.88-.05-.03,0-.07,0-.1,0-.24-.04-.48-.05-.73-.05-.1-.08-.22-.13-.35-.16-.05-.01-.1-.04-.15-.06-.29-.11-.56-.23-.86-.32-.28-.08-.57-.15-.86-.2-.38-.07-.75-.16-1.12-.24-.33-.07-.67-.13-1-.2-.34-.08-.69-.1-1.04-.17-.41-.08-.83-.1-1.24-.1-.07,0-.16,.05-.22,.03-.12-.04-.24-.02-.36-.01-.54,.04-1.08,.08-1.62,.14-.33,.04-.65,.12-.97,.17-.21,.04-.42,.12-.63,.17-.23,.05-.43,.14-.65,.22-.39,.13-.75,.3-1.11,.49-.17,.09-.35,.17-.54,.24-.31,.12-.62,.22-.93,.32-.21,.06-.42,.13-.64,.17-.24,.04-.47,.1-.7,.18-.21,.07-.42,.1-.62,.2-.41,.08-.81,.2-1.24,.13-.04,0-.09,0-.13,0-.22,.01-.44,.03-.66,.04-.06,0-.13,.01-.2,0-.16-.04-.3,0-.44,.01-.07,.07-.13,.12-.13,.2,.01,.06,.07,.09,.11,.12,.1,.06,.21,.13,.32,.17,.16,.06,.29,.16,.42,.26,.15,.13,.31,.25,.5,.32,.16,.07,.32,.15,.46,.25,.21,.14,.45,.23,.69,.3,.14,.04,.28,.07,.41,.13,.2,.1,.41,.15,.62,.22,.38,.13,.78,.22,1.17,.32,.14,.03,.27,.09,.42,.1,.25,.02,.5,.07,.74,.13,.18,.04,.37,.07,.55,.09,.27,.03,.54,.08,.82,.06,.02,0,.04,.01,.07,.01,.22,.01,.43,.05,.66,.03,.13-.01,.25-.08,.38-.04,.1-.05,.22,0,.32-.04,.13-.05,.26-.05,.38-.08,.09-.01,.18-.01,.26-.05,.08-.04,.17-.05,.25-.06,.4-.05,.8-.13,1.17-.29,.04-.02,.08-.03,.12-.03,.23-.03,.45-.12,.67-.18,.38-.11,.73-.3,1.1-.44,.21-.08,.39-.2,.59-.28,.35-.14,.71-.28,1.07-.42,.08-.03,.17-.06,.24-.11,.66-.42,1.39-.69,2.12-.97,.19-.08,.39-.13,.57-.24,.09-.05,.2-.1,.31-.11,.26-.04,.52-.09,.79-.08,.12,0,.24,.04,.36,.03,.16-.02,.31,.03,.46,.02,.17-.01,.33,.03,.49,.03,.09,0,.17,.04,.26,.03,.26-.01,.53,.02,.79,.05,.15,.02,.3,.04,.46,.03,.17,0,.33,.01,.49,.04,.61,.13,1.2,.32,1.79,.51,.28,.17,.6,.21,.87,.39,.07,.04,.17,.05,.25,.07,.04,.01,.09,0,.13,.03,.17,.1,.37,.14,.55,.22,.34,.15,.71,.23,1.03,.42,.03,.02,.07,.03,.09,.03,.08,0,.14,.05,.21,.08,.24,.12,.46,.24,.72,.32,.22,.06,.43,.17,.64,.27,.13,.06,.24,.16,.36,.22,.14,.07,.27,.14,.39,.22,.09,.06,.19,.11,.28,.16,.12,.06,.24,.13,.36,.17,.15,.04,.22,.17,.36,.23,.03,.01,.06,.02,.09,.04,.08,.04,.16,.08,.23,.13,.42,.27,.87,.51,1.29,.79,.13,.09,.3,.13,.41,.27,.09,.14,.29,.15,.39,.29,.04,.06,.12,.08,.16,.19-.23-.08-.45-.08-.66-.15-.23-.07-.46-.14-.7-.18-.31-.05-.62-.14-.94-.15-.24,0-.47-.08-.67-.22-.01,0-.02-.01-.03-.02-.22-.14-.46-.26-.71-.35-.47-.18-.97-.29-1.46-.42-.03,0-.06-.02-.09-.02-.14,.02-.26-.05-.4-.1-.19,.04-.4-.03-.6-.05-.45-.07-.9-.02-1.35,.04-.27,.1-.56,.11-.84,.14-.04,0-.09,0-.13,.02-.13,.08-.28,.08-.42,.09-.15,.01-.27,.1-.41,.11-.11,0-.21,.04-.32,.07-.25,.07-.51,.12-.78,.16-.08,.02-.17,.04-.25,.06-.26,.07-.53,.16-.79,.22-.27,.07-.52,.16-.78,.27-.22,.09-.45,.18-.67,.26-.22,.08-.46,.14-.69,.21-.19,.06-.38,.12-.56,.19-.36,.14-.71,.28-1.07,.42-.28,.11-.53,.26-.79,.39-.2,.1-.39,.21-.6,.26-.36,.09-.72,.17-1.1,.18-.25,.01-.5-.03-.75,0-.24,.03-.48-.01-.72-.04-.43-.05-.86-.15-1.31-.14l-.07,.14c.04,.08,.11,.12,.18,.14,.21,.05,.39,.14,.59,.22,.04,.02,.08,.04,.12,.05,.41,.11,.81,.26,1.21,.42,.11,.04,.22,.09,.33,.15,.36,.19,.74,.34,1.13,.47,.18,.05,.36,.1,.54,.13,.26,.04,.53,.04,.79,.07,.38,.04,.76,.05,1.14,.16,.08,.03,.17,.04,.26,.04,.2,0,.39,.03,.59,.04,.36,.02,.72,.04,1.08,.02,.04,0,.09-.02,.13,0,.17,.05,.33,.02,.49,0,.25-.03,.5,.02,.76,.03,.24,.01,.48,.03,.72,.03,.2,0,.4-.03,.59-.04,.32-.01,.63-.11,.94-.18,.21-.04,.42-.11,.62-.21,.18-.1,.37-.18,.56-.27,.22-.1,.43-.21,.64-.32,.22-.12,.43-.26,.66-.38,.42-.21,.79-.47,1.16-.75,.34-.26,.93-.65,1.3-.84,.16-.08,.31-.17,.48-.21,.25-.07,.49-.19,.75-.18,.3-.11,.61-.03,.92-.03,.22,0,.43,.03,.65,.05,.1,0,.2,0,.29,.03,.42,.1,.84,.16,1.26,.23,.2,.03,.38,.1,.53,.25,.05,.05,.12,.1,.18,.14,.25,.2,.5,.39,.74,.59,.08,.07,.15,.16,.25,.22,.01,0,.02,.01,.03,.02,.15-.11,.29-.22,.43-.33-.11-.1-.23-.19-.34-.29m-18.72-5.55c-.32,.09-.59,.29-.88,.44-.26,.13-.53,.21-.79,.32-.13,.05-.27,.1-.4,.16-.41,.18-.83,.35-1.23,.56-.17,.09-.36,.16-.55,.21-.28,.07-.54,.19-.82,.23-.12,.02-.22,.08-.34,.11-.32,.09-.63,.19-.96,.21-.24,.13-.53,.06-.76,.18-.35,.02-.7,.12-1.05,.06-.17-.03-.35-.01-.53-.03-.21,0-.42-.01-.62-.04-.13-.01-.25-.06-.38-.08-.33-.05-.65-.12-.97-.18-.05,0-.11-.02-.16-.04-.23-.06-.46-.13-.7-.19-.26-.07-.52-.15-.79-.22-.25-.07-.49-.18-.75-.24-.29-.07-.55-.21-.83-.32-.08-.04-.16-.07-.2-.16,.12,0,.21,.01,.34,.06,.27,.09,.53,.19,.82,.22,.1,0,.2,.02,.29,.01,.18,0,.37-.03,.56,0,.16,.03,.33-.02,.49-.03,.25-.02,.5-.04,.76-.02,.2,.02,.4-.02,.59-.03,.19-.01,.37-.04,.56-.01,.11,.02,.22,0,.33-.01,.16-.01,.33-.03,.49-.04,.24-.01,.46-.06,.67-.16,.15-.07,.31-.12,.47-.14,.29-.04,.57-.09,.84-.16,.22-.05,.45-.12,.67-.17,.22-.05,.44-.14,.67-.16,.09,0,.17-.04,.25-.06,.18-.06,.35-.12,.54-.14,.16-.01,.32-.07,.47-.12,.22-.07,.43-.15,.65-.22,.01,0,.02-.01,.03-.01,.25-.05,.49-.1,.74-.15,.17-.03,.35-.03,.52-.1,.07-.03,.15-.03,.23-.03,.34,.04,.68-.01,1.02-.05,.15-.01,.31-.03,.46-.04,.25-.02,.5-.06,.76,0,.25-.04,.5,.04,.75,.03-.43,.21-.88,.32-1.28,.55m1.25-.91c-.09,0-.17,.02-.26,0-.06-.02-.13,0-.2,0-.05,0-.11,.02-.16,0-.2-.06-.39-.02-.59,0-.51,.04-1.03,.09-1.55,.14-.19,.02-.37,.04-.56,.05-.26,.01-.51,.1-.77,.16-.09,.02-.19,.04-.29,.07-.18,.05-.36,.09-.53,.16-.16,.06-.33,.12-.5,.15-.16,.04-.32,.09-.48,.11-.16,.01-.31,.1-.47,.14-.2,.05-.4,.1-.61,.15-.1,.03-.21,.07-.31,.09-.1,.03-.2,.04-.29,.06-.09,.02-.17,.05-.26,.05-.28,.01-.54,.1-.81,.16-.17,.03-.34,.11-.5,.18-.11,.05-.22,.08-.35,.09-.18,.01-.37,.04-.56,.04-.14,0-.29-.03-.42,0-.37,.04-.75,0-1.12,.02-.25-.07-.5,0-.75,0-.36,0-.72-.02-1.08-.03-.13-.06-.29,0-.41-.1-.01-.01-.04-.03-.06-.03-.26-.01-.49-.13-.73-.18-.13-.03-.26-.06-.38-.06-.18,0-.34-.04-.54-.05,.13-.05,.25-.07,.35-.05,.3,.06,.59-.02,.88-.05,.12-.01,.23-.07,.34-.12,.4-.15,.81-.26,1.23-.36,.23-.05,.47-.1,.69-.19,.39-.14,.79-.27,1.17-.42,.16-.06,.33-.13,.48-.22,.36-.2,.74-.34,1.12-.48,.28-.1,.56-.18,.84-.27,.01,0,.02,0,.03,0,.3-.01,.58-.13,.87-.16,.64-.06,1.27-.12,1.91-.17,.11,0,.22-.02,.33,0,.09,.02,.18,0,.26,0,.4-.03,.79,.03,1.17,.09,.12,.02,.24,.05,.36,.04,.07,0,.13,.01,.2,.02,.62,.07,1.23,.2,1.84,.34,.43,.09,.85,.18,1.28,.28,.22,.05,.45,.12,.66,.22,0,.02,0,.04,0,.08-.16,0-.31,.06-.48,.06m-1.84,7.28c.43-.02,.82-.18,1.18-.38,.2-.11,.41-.21,.61-.31,.4-.2,.83-.33,1.26-.46,.24-.07,.49-.12,.72-.23,.16-.07,.33-.1,.51-.14,.1-.02,.18-.06,.28-.1,.34-.14,.7-.26,1.05-.37,.14-.04,.29-.07,.43-.13,.13-.06,.28-.05,.41-.11,.17-.08,.36-.1,.54-.13,.28-.05,.55-.13,.83-.2,.22-.06,.45-.1,.67-.15,.16-.04,.32-.08,.48-.1,.16-.03,.33-.02,.49-.1,.16,.01,.32-.06,.48-.06,.15,0,.31-.04,.46,.01,.44-.03,.87,.09,1.3,.15,.42,.06,.81,.2,1.22,.28,.22,.05,.44,.11,.64,.22-.01,.07-.07,.06-.1,.05-.21-.02-.41-.01-.62,0-.12,0-.24,.02-.36-.01-.08-.02-.17,0-.26,0-.28,.03-.55,.05-.83,.08-.1,.01-.2,.01-.29,.06-.05,.03-.11,.03-.16,.03-.28,.01-.54,.11-.81,.16-.13,.03-.25,.08-.37,.12-.16,.05-.31,.1-.47,.16-.02,0-.04,0-.06,.01-.41,.21-.87,.3-1.29,.48-.04,.02-.08,.03-.13,.04-.19,.01-.36,.09-.54,.13-.11,.02-.21,.06-.32,.09-.11,.02-.21,.06-.32,.09-.26,.08-.53,.15-.79,.22-.26,.07-.53,.14-.8,.19-.31,.06-.62,.09-.92,.2-.02,.01-.04,.01-.07,.01-.3,.05-.61,.1-.91,.17-.2,.04-.39,.09-.58,.14-.05,.01-.1,.04-.16,.05-.05,.01-.11,.03-.16,.03-.11,0-.21,.04-.32,.05-.42,.02-.56,.04-1.1-.04-.3-.04-.61-.06-.91-.12-.03,0-.06-.02-.13-.04,.09-.01,.14-.03,.19-.04m13.62-1.87c-.22,.07-.43,.16-.62,.28-.18,.12-.38,.21-.57,.33-.3,.18-.56,.42-.84,.63-.26,.19-.51,.38-.79,.54-.4,.22-.8,.44-1.21,.65-.35,.18-.7,.36-1.08,.48-.18,.06-.38,.12-.58,.14-.15,.01-.31,0-.45,.08-.03,.01-.07,.03-.09,.01-.14-.05-.28,.04-.42,.01-.12-.03-.26,.02-.39,.02-.26,0-.53-.02-.79-.04-.16-.01-.33,.02-.49-.04-.15,.06-.3,.02-.45,.03-.17,.01-.35,.05-.52,0-.02,0-.04,0-.07,0-.38,.05-.74-.02-1.12-.05-.07,0-.13-.01-.2-.01-.07,0-.13,0-.2-.01-.36-.09-.74-.1-1.1-.14-.29-.03-.59-.04-.88-.08-.36-.05-.7-.17-1.04-.28-.32-.11-.64-.25-.95-.38-.04-.01-.07-.04-.11-.07,.03-.04,.06-.03,.09-.03,.27,.07,.54,.12,.81,.1,.04,0,.09,0,.13,.01,.31,.09,.63,.09,.94,.15,.07,.01,.13,.03,.2,.03,.42,.06,.84,.09,1.27,.03,.22-.03,.42-.11,.63-.16,.03,0,.06-.02,.09-.03,.29-.05,.58-.1,.87-.16,.04,0,.09,0,.13-.02,.15-.08,.32-.08,.48-.1,.29-.05,.58-.07,.86-.16,.31-.09,.64-.11,.94-.26,.21-.02,.41-.1,.6-.17,.04-.01,.08-.02,.13-.03,.49-.1,.98-.22,1.45-.41,.26-.1,.53-.21,.8-.31,.34-.13,.67-.27,1.02-.37,.23-.06,.46-.13,.71-.15,.25-.02,.51-.04,.75-.09,.19-.04,.38-.08,.58-.09,.12-.01,.24-.03,.36,0,.09,.02,.2,.01,.3,0,.15-.03,.3,.03,.45-.02,.15,.05,.3,0,.45,.02,0,.03,.01,.05,.02,.07-.03,.04-.07,.04-.12,.06"/><path class="cls-9" d="M103.26,136.31c0-.09-.02-.2-.18-.18-.71,.82-1.52,1.57-2.3,2.34-.1,.1-.21,.21-.33,.3-.83,.64-1.65,1.3-2.63,1.73-.61,.26-1.17,.64-1.66,1.07-.74,.64-1.51,1.25-2.18,1.96-.2,.21-.39,.44-.6,.64-.48,.43-.84,.95-1.17,1.5-.33,.54-.65,1.09-.96,1.65-.12,.21-.23,.43-.32,.66-.45,1.14-.76,2.32-.88,3.54-.08,.83-.2,1.65-.19,2.48,0,.17,.03,.34-.07,.52-.06-.04-.12-.07-.17-.11-.04-.19-.09-.39-.13-.57-.15-.74-.3-1.48-.38-2.23-.05-.41-.12-.82-.2-1.22-.14-.69-.32-1.37-.47-2.06-.11-.5-.25-.99-.32-1.5-.08-.56-.24-1.09-.43-1.62-.24-.66-.46-1.34-.65-2.02-.18-.68-.35-1.37-.65-2.01-.12-.26-.2-.55-.2-.85,0-.44-.12-.87-.22-1.3-.08-.35-.13-.72-.25-1.07-.14-.4-.1-.82-.19-1.23-.16-.72-.24-1.44-.22-2.18,.02-.75,0-1.51,.11-2.26,.09-.58,.19-1.15,.36-1.71,.08-.26,.17-.51,.25-.77,.32-1.03,.9-1.9,1.68-2.62,.6-.57,1.22-1.12,1.92-1.59,.45-.3,.85-.66,1.24-1.03,.71-.68,1.47-1.29,2.24-1.89,.24-.19,.49-.38,.76-.54-.19-.06-.37-.13-.56-.21-.33,.22-.65,.47-.95,.73-.75,.66-1.53,1.29-2.26,1.97-.49,.44-1.05,.8-1.57,1.21-.65,.52-1.24,1.11-1.78,1.75-.3,.35-.53,.77-.69,1.2-.22,.59-.45,1.18-.7,1.84-.09-.29-.08-.48-.04-.68,.14-.64,.25-1.29,.44-1.92,.4-1.33,1.05-2.52,2.06-3.49,.53-.51,1.09-.98,1.67-1.43,.23-.18,.48-.34,.62-.59,.01-.12,0-.21-.09-.29-.04,0-.09-.02-.13,0-.71,.44-1.34,.99-1.93,1.57-.25,.24-.47,.51-.72,.73-.45,.4-.74,.91-1,1.43-.44,.88-.79,1.78-.99,2.75-.1,.5-.19,1-.23,1.51-.03,.32-.09,.62-.22,.92-.13-.08-.09-.21-.09-.31-.01-1.15-.02-2.3-.03-3.45,0-.62,.19-1.2,.41-1.77,.19-.48,.46-.92,.74-1.35,.68-1.08,1.51-2.03,2.53-2.83,.62-.49,1.27-.92,1.94-1.31-.14-.12-.28-.24-.41-.37-.8,.48-1.55,1.02-2.23,1.67-.47,.46-.96,.9-1.35,1.43-.19,.25-.38,.5-.6,.69-.3,.57-.63,1.08-.85,1.66-.45,1.2-.8,2.41-.73,3.71,.03,.44-.02,.88,.06,1.31,.07,.42,.07,.83,.1,1.24,.03,.41,.11,.82,.12,1.23,.02,.74,.14,1.46,.27,2.17,.05,.27,.09,.55-.05,.91-.34-.91-.65-1.73-.94-2.55-.14-.39-.28-.78-.47-1.15-.44-.84-.89-1.69-1.34-2.52-.12-.21-.26-.42-.42-.6-.64-.74-1.17-1.56-1.75-2.35-.69-.96-1.43-1.86-2.4-2.56-.13-.1-.25-.22-.37-.33,.05-.27,.25-.44,.38-.64,.43-.65,.79-1.35,1.19-2.02,.43-.73,.68-1.51,.88-2.32,.11-.43,.15-.86,.15-1.3,0-.88,0-1.76,.41-2.58,.01-.02,.01-.05,.02-.07,.06-.52,.31-.99,.55-1.43,.31-.56,.56-1.13,.77-1.73,.18-.51,.32-1.03,.32-1.57,0-.25-.01-.5,.05-.73,.07-.27,.07-.53,.08-.8,0-.56,0-1.13,0-1.69-.01-.76-.13-1.51-.31-2.24-.26-1.06-.51-2.13-.59-3.28-.23-.34-.29-.78-.39-1.21-.13-.53-.32-1.03-.57-1.5-.46-.89-1.01-1.73-1.67-2.53-.16-.11-.34-.23-.49-.34-.23-.05-.42-.05-.6,0-.39,.16-.64,.48-.95,.67-.42,.54-.74,1.12-1.06,1.69-.31,.56-.55,1.14-.71,1.76-.03,.12-.08,.23-.11,.35-.14,.55-.36,1.06-.57,1.58-.03,.06-.04,.13-.17,.13-.05-.12-.13-.25-.15-.39-.05-.39-.2-.75-.33-1.12-.18-.51-.43-1.01-.86-1.35-.56-.44-1.03-.98-1.54-1.47-.18-.17-.35-.35-.54-.49-.37-.28-.76-.53-1.15-.8-.36-.04-.7-.19-1.08-.17-.8,.04-1.61-.01-2.42,.13-.39,.07-.76,.15-1.12,.32-.33,.16-.65,.34-.98,.51-.44,.23-.78,.57-1.06,.98-.3,.43-.52,.88-.7,1.37-.37,1.03-.74,2.07-1.1,3.1-.09,.25-.16,.51-.2,.78-.03,.21-.04,.45,.01,.65,.12,.47,.24,.95,.45,1.39,.75,1.54,1.55,3.04,2.54,4.45,.22,.32,.48,.62,.74,.91,.64,.7,1.38,1.31,2.04,2,.24,.25,.49,.48,.7,.76,.26,.35,.58,.66,.87,.99,.21,.24,.41,.48,.61,.73,.02,.03,0,.08,0,.12-.05,0-.12,.01-.15,0-.62-.48-1.26-.92-1.82-1.48-.24-.24-.48-.5-.75-.69-.46-.34-.84-.75-1.24-1.14-.86-.84-1.72-1.66-2.76-2.29-1.03-.62-2.08-1.18-3.16-1.63-.2-.01-.38-.02-.55-.04-.53-.05-1,.08-1.46,.36-.64,.37-1.21,.82-1.9,1.24-.29,.05-.66,.1-1.01,.19-.28,.07-.56,.18-.82,.3-.26,.13-.51,.29-.72,.41-.41,.44-.58,.96-.8,1.49,.07,.31-.1,.63-.13,.97-.04,.64-.16,1.26-.34,1.87-.17,.58-.17,1.15-.1,1.7,.28,.48,.63,.86,.95,1.26,.4,.49,.89,.83,1.46,1.08,.42,.19,.87,.34,1.3,.51,.54,.2,1.09,.35,1.69,.6-1.49,.23-2.86,.53-4.21,.99-.28,.09-.54,.22-.79,.38-.39,.25-.61,.63-.8,.92-.22,.57-.24,1.08-.23,1.6,0,.17,.01,.35-.03,.51-.14,.48-.11,.97-.12,1.46-.03,.91,.23,1.72,.73,2.48,.39,.59,.77,1.18,1,1.87,.18,.53,.46,1.02,.8,1.47,.21,.28,.45,.51,.74,.7,.74,.51,1.57,.75,2.45,.86,.7,.09,1.4,.16,2.1,.24,.19,.02,.39,.02,.58,.04,.35,.03,.68-.12,1.02-.09,.24,.02,.47,.02,.7,0-.04-.05-.09-.1-.13-.15-.15-.17-.3-.32-.45-.48-.36,0-.75-.02-1.17-.05,.26-.15,.42-.27,.61-.33,.06-.02,.12-.04,.18-.06-.03-.04-.07-.07-.11-.09-.14-.12-.27-.24-.4-.37-.06,.03-.12,.05-.18,.07-.21,.08-.42,.13-.63,.17-.87,.13-1.73,.36-2.61,.17-.23-.05-.43,.1-.76,0-.11-.06-.33-.17-.55-.27-.84-.39-1.4-1.03-1.73-1.9-.17-.46-.38-.9-.6-1.33-.11-.22-.25-.42-.38-.62-.38-.57-.7-1.17-.83-1.86-.04-.22-.09-.44-.03-.65,.1-.36,.1-.73,.12-1.09,.02-.34,.14-.66,.09-1.01-.03-.21,.05-.43,.07-.6,.11-.42,.43-.64,.63-.95,.47-.32,1.02-.48,1.55-.63,.82-.23,1.66-.43,2.5-.58,.47-.09,.97-.07,1.46-.07,.54,0,1.08,0,1.62,.05,.46,.04,.92,.11,1.37,.2,.53,.11,1.04,.28,1.56,.39,.69,.14,1.37,.35,2.08,.41,.24,.02,.47,.12,.74,.19-.29,.23-.54,.43-.81,.65-.09,.18-.2,.4-.29,.56-.13,.62,0,1.12,.28,1.6,.2,.34,.39,.68,.52,1.05,.28,.82,.9,1.24,1.66,1.53,.32,.13,.64,.25,.97,.38,.86,.13,1.74-.02,2.62,.14-.7,.17-1.41,.31-2.1,.5-1.27,.35-2.53,.76-3.74,1.31-.15,.07-.3,.14-.44,.21-.22-.12-.44-.23-.67-.31-.19-.06-.37-.14-.56-.19-.14-.03-.28-.05-.42-.09-.39-.11-.79-.19-1.18-.28-.42-.09-.84-.14-1.26-.23-.4-.09-.8-.14-1.18-.29-.11-.04-.23-.07-.35-.09-.31-.05-.63-.1-.95-.12-.36-.03-.72-.06-1.05-.22-.11-.05-.22-.09-.33-.16-.04-.03-.09-.06-.14-.08-.18-.04-.35-.13-.54-.14-.06,.03-.15,.04-.16,.13,0,.01,0,.03,0,.03,.04,.03,.07,.06,.11,.08,.34,.13,.63,.35,.93,.55,.09,.06,.18,.12,.26,.2,.1,.1,.21,.19,.33,.27,.09,.06,.17,.14,.25,.21,.34,.31,.65,.66,1.02,.93,.05,.04,.1,.09,.15,.13,.17,.17,.34,.34,.51,.51,.18,.18,.37,.35,.53,.54,.18,.2,.37,.39,.56,.58,.11-.04,.21-.09,.32-.13-.27-.24-.51-.51-.76-.77-.03-.03-.05-.07-.09-.1-.29-.27-.6-.55-.88-.83-.27-.27-.58-.51-.82-.81-.14-.17-.33-.3-.49-.44-.11-.09-.22-.18-.33-.27,.02-.05,.05-.06,.08-.05,.05,.01,.1,.04,.15,.06,.59,.24,1.18,.48,1.76,.73,.28,.12,.54,.25,.8,.4,.47,.27,.95,.55,1.43,.82,.21,.12,.41,.25,.61,.38,.07,.04,.13,.08,.19,.13,.13,.1,.26,.2,.41,.29,.04,.06,.09,.1,.15,.14,.05,.03,.09,.05,.14,.07,.13,.08,.26,.17,.38,.26,.28,.22,.54,.46,.84,.64,.03,.01,.05,.03,.07,.05,.05,.05,.09,.1,.14,.15,.13,.12,.26,.25,.4,.37,.24,.23,.49,.46,.73,.69,.17,.15,.32,.33,.48,.49,.22,.21,.41,.46,.62,.68,.13,.15,.26,.3,.41,.43,.49,.43,.93,.91,1.36,1.39,.19,.21,.36,.44,.55,.65,.08,.08,.13,.18,.18,.27,0,.01,0,.04-.01,.08-.13-.09-.26-.16-.38-.25-.43-.34-.92-.6-1.42-.83-.33-.15-.66-.3-.99-.45-.27-.13-.53-.26-.79-.4-.3-.16-.59-.33-.89-.49-.49-.27-.95-.59-1.38-.95-.34-.29-.67-.59-.99-.91-.16,0-.32,.02-.47,.03,.15,.15,.3,.29,.46,.42,.08,.06,.15,.13,.22,.2,.24,.25,.51,.45,.77,.67,.14,.05,.2,.21,.34,.25,.47,.33,.99,.58,1.48,.86,.24,.13,.49,.25,.74,.36,.38,.19,.76,.39,1.16,.56,.71,.31,1.34,.74,1.98,1.17,.18,.12,.36,.26,.5,.43,.5,.59,.92,1.22,1.33,1.88,.15,.23,.29,.48,.43,.72-.13,.11-.27,.22-.41,.33-.14,.11-.29,.22-.43,.33-.21,.16-.43,.3-.66,.42-.12,.25-.13,.45,.09,.69,.21-.07,.4-.12,.58-.18,.25-.1,.5-.18,.76-.25,.2-.06,.4-.1,.59-.14,.04-.01,.08-.01,.11-.02,.1-.02,.2-.03,.3-.04,.29-.04,.58-.05,.88-.05,.47,.01,.93,0,1.4,.01,.15,0,.29,.01,.44,.04,.72,.12,1.44,.27,2.16,.36,.9,.1,1.78,.28,2.67,.43,.95,.17,1.82,.57,2.72,.85,.19,.06,.36,.16,.53,.26,.51,.34,1.02,.67,1.51,1.03,.54,.39,1.03,.83,1.57,1.21,1.09,.77,1.96,1.76,2.81,2.76,.7,.83,1.15,1.81,1.63,2.77,.08,.15,.13,.32,.16,.49,.09,.55,.25,1.09,.32,1.65,.12,.9,.3,1.78,.46,2.66,.29,1.63,.7,3.23,1.13,4.83,.25,.94,.51,1.88,.74,2.82,.22,.92,.45,1.85,.67,2.77,.38,1.54,.83,3.06,1.46,4.52,.03,.07,.05,.14,.15,.14,.13-.02,.12-.13,.12-.22,.02-.4-.12-.77-.22-1.14-.51-1.75-1.03-3.51-1.47-5.28-.23-.92-.41-1.85-.68-2.71,.05-.29,.11-.53,.13-.77,.02-.27,0-.53,0-.77,.12-.24,.2-.44,.31-.63,.1-.17,.21-.33,.33-.49,.19-.25,.38-.51,.6-.74,.67-.71,1.07-1.57,1.42-2.45,.25-.61,.39-1.26,.7-1.85,.02-.04,0-.09,0-.15-.02-.09-.09-.16-.19-.19-.18,.02-.33,.11-.44,.24-.79,.84-1.56,1.69-2.19,2.66-.59,.9-.85,1.9-.92,2.97-.01,.26,.03,.53-.06,.81-.18-.13-.19-.31-.22-.46-.13-.59-.23-1.2-.34-1.79-.12-.62-.2-1.25-.34-1.87-.13-.58-.13-1.15,0-1.74,.15-.69,.35-1.37,.58-2.04,.25-.72,.59-1.39,1.01-2.03,.57-.87,1.33-1.56,2.14-2.19,.72-.55,1.45-1.09,2.2-1.59,.82-.54,1.49-1.27,2.18-1.96,.05-.05,.1-.1,.15-.16-.06-.14-.12-.28-.17-.42,0-.01,0-.02-.01-.03-.35,.44-.79,.81-1.21,1.2-.72,.66-1.55,1.18-2.34,1.76-.91,.66-1.8,1.35-2.55,2.19-.18,.2-.34,.42-.5,.64-.16,.21-.3,.44-.45,.66-.1-.09-.08-.19-.04-.28,.38-.95,.8-1.89,1.37-2.75,.45-.68,1.02-1.26,1.65-1.76,.67-.52,1.31-1.09,2.01-1.59,.56-.4,1.04-.89,1.53-1.37-.06-.14-.12-.28-.18-.42-.12,.12-.25,.25-.37,.37-.12,.12-.23,.27-.37,.35-.65,.4-1.18,.95-1.78,1.41-.45,.34-.89,.68-1.33,1.03-.46,.37-.82,.84-1.17,1.3-.61,.8-1.03,1.71-1.41,2.64-.29,.72-.49,1.48-.76,2.21-.13-.04-.08-.14-.09-.22-.01-.1-.01-.2,0-.29,.15-.69,.17-1.4,.39-2.08,.26-.84,.53-1.66,1.02-2.41,.29-.44,.52-.94,.79-1.39,.25-.42,.57-.79,.92-1.13,.57-.54,1.1-1.11,1.68-1.64,.54-.49,1.1-.96,1.68-1.41,.33-.25,.7-.45,1.07-.64,.81-.41,1.6-.85,2.29-1.44,.44-.38,.86-.79,1.3-1.18,.27-.25,.55-.48,.92-.82-.07,.46-.18,.73-.32,.99-.31,.58-.64,1.15-.94,1.74-.59,1.17-1.28,2.27-2.04,3.33,.11,.1,.21,.19,.32,.28,.72-1.09,1.39-2.22,2.04-3.36,.24-.43,.41-.89,.66-1.3,.45-.74,.72-1.55,1.07-2.33,.09-.21,.12-.43,.09-.65m-22.3-31.63c.23,.59,.38,1.15,.37,1.74,0,.93-.01,1.86,0,2.78,.01,.52-.1,1.01-.16,1.52-.04,.28-.16,.56-.26,.84-.23,.67-.58,1.28-.97,1.87-.12-.12-.12-.24-.11-.36,.04-.68-.03-1.37,.14-2.04,.03-.12,.03-.25,.02-.36-.04-.86,.12-1.7,.15-2.55,0-.1,0-.2,.02-.29,.22-.92,.44-1.85,.66-2.77,.03-.12,.08-.22,.14-.38m-7.18-.99c.11-.44,.09-.9,.26-1.33,.18-.46,.34-.94,.51-1.41,.07-.18,.14-.36,.18-.54,.21-1.03,.72-1.92,1.26-2.79,.3-.5,.7-.91,1.27-1.09,.14-.02,.28-.01,.43,.06,.22,.12,.4,.31,.55,.53,.58,.85,1.14,1.7,1.54,2.66,.07,.17,.1,.36,.16,.55,.23,.73,.39,1.48,.49,2.23,.08,.64,.09,1.28-.03,1.93-.14,.77-.39,1.52-.53,2.29-.11,.61-.25,1.21-.25,1.84,0,.4-.09,.8-.03,1.21,.01,.09,0,.19-.03,.28-.09,.26-.07,.52-.09,.78-.05,.67-.1,1.33-.15,2,0,.04-.04,.08-.08,.15-.05-.09-.12-.17-.14-.25-.15-.57-.38-1.13-.53-1.7-.2-.77-.55-1.47-1.17-2.12-.15-.08-.38-.2-.58-.3-.25-.05-.47-.05-.71,.01-.37,.33-.79,.64-1.27,.87-.03-.03-.08-.05-.08-.08,.01-.85-.2-1.65-.38-2.47-.22-1-.41-2-.61-3-.02-.09-.03-.2,0-.29m-7.5,8.48c-.49-.48-.98-.96-1.47-1.43-.87-.83-1.57-1.8-2.17-2.84-.18-.32-.37-.63-.55-.95-.29-.51-.54-1.04-.8-1.56-.22-.44-.37-.9-.52-1.37-.11-.33-.1-.67,.03-1,.21-.55,.41-1.09,.61-1.65,.22-.62,.45-1.23,.66-1.86,.15-.42,.4-.78,.66-1.13,.1-.13,.24-.25,.38-.34,.47-.31,.93-.62,1.47-.81,.14-.05,.26-.12,.39-.18,.44-.07,.88-.08,1.32-.13,.63-.08,1.27-.05,1.91-.04,.21,0,.42,.1,.6,.14,.47,.29,.84,.52,1.22,.76,.34,.21,.6,.5,.85,.8,.25,.3,.5,.59,.83,.82,.85,.59,1.18,1.48,1.39,2.42,.07,.34,.19,.65,.3,.95v1.41c0,.42,.06,.82,.18,1.22,.11,.37,.18,.76,.26,1.14,.13,.6,.25,1.19,.37,1.79,.09,.52,.17,1.05,.25,1.59-.4,.57-.79,1.13-1.01,1.76-.15,1.08-.2,2.16-.51,3.19-.07,.04-.12,.08-.19,.12-.04,.02-.09,.03-.17,.05-.21-.25-.25-.56-.22-.89,.17-.12,.35-.25,.5-.35,.14-.27,.1-.5,.03-.73-.26-.23-.53-.38-.86-.27-.22,.22-.3,.48-.22,.75,.18,.61,.17,1.26,.39,1.83-.06,.17-.09,.31-.21,.41-.05,0-.09-.01-.17-.03-.12-.25-.25-.51-.37-.77-.06-.13-.13-.27-.12-.35,0-.36,.25-.62,.1-.92-.07-.16-.18-.29-.4-.35-.2,.09-.37,.25-.51,.45-.07,.25-.09,.48,.07,.73,.12,.05,.25,.1,.41,.17,.1,.33,.2,.68,.31,1.03-.03,.04-.05,.08-.08,.11-.09,.09-.21,.12-.38,.1-.36-.39-.62-.88-.84-1.41,.05-.19,.11-.37,.16-.56-.06-.35-.25-.58-.62-.65-.27,.16-.39,.42-.51,.66-.03,.19-.04,.36,.09,.52,.11,.14,.32,.1,.47,.22,.03,.04,.09,.09,.12,.16,.23,.43,.45,.87,.68,1.31-.03,.06-.11,.06-.17,.03-.68-.45-1.24-1.03-1.76-1.64-.7-.82-1.38-1.65-2.14-2.41m4.2,5.46c-.32,.1-.59,.25-.8,.47-.12-.05-.09-.12-.06-.17,.24-.34,.51-.64,.85-.89,.11,.22,.11,.22,.01,.6m.08,1.16c-.1,.2-.24,.36-.52,.38-.04-.11-.09-.22-.13-.32,.04-.29,.2-.43,.47-.46,.12,.12,.16,.25,.18,.4m.78,.14c.82-.75,1.34-1.66,1.64-2.72,0-.01,.03-.01,.04-.02,.02,.04,.05,.08,.06,.13,.05,.68,.1,1.36,.16,2.03-.14,.46-.33,.88-.75,1.14-.49,.57-1.1,.95-1.78,1.25-.4,.18-.77,.42-1.12,.7-.19,.15-.39,.29-.6,.42-.73,.47-1.5,.53-2.38,.2,.71-.29,1.33-.56,1.87-.99,.3-.24,.63-.45,.97-.65,.7-.41,1.29-.95,1.88-1.5m-3.5-3.05c.06,0,.12-.03,.15-.01,.52,.4,1.14,.65,1.7,1.01-.04,.25-.14,.35-.29,.4-.2,.05-1.02-.36-1.58-.79,0-.12-.02-.26-.02-.41,0-.07,.03-.14,.04-.2m-7.7,4.59c-.14-.04-.29-.05-.43-.09-.4-.11-.8-.2-1.19-.35-.54-.21-1.12-.35-1.68-.51-.73-.21-1.47-.37-2.17-.67-.33-.14-.69-.24-1.04-.36-.68-.23-1.28-.57-1.78-1.12-.36-.4-.78-.75-1-1.28-.04-.19,0-.4,.06-.62,.18-.56,.32-1.12,.37-1.71,.04-.53,.18-1.05,.28-1.57,.07-.34,.22-.6,.52-.96,.39-.23,.77-.51,1.27-.68,.03,0,.13-.01,.23-.03,.61-.09,1.18-.25,1.68-.65,.34-.27,.76-.45,1.1-.72,.37-.27,.77-.42,1.22-.48,.03,0,.08,.01,.13,.02,1.13,.12,2.07,.73,3.03,1.24,.84,.45,1.59,1.04,2.3,1.68,.7,.64,1.38,1.32,2.11,1.93,.73,.61,1.36,1.34,2.15,1.88,.05,.04,.08,.12,.12,.18-.32,.18-.57,.41-.65,.77-.07,.28,0,.53,.22,.73,.21,.08,.38-.05,.59-.07,.49,.29,1.05,.48,1.47,.84,.09,.37-.09,.55-.36,.71-.35-.04-.67-.2-.92-.34-.22-.17-.17-.37-.25-.52-.07-.13-.14-.25-.2-.36-.22-.12-.4-.12-.62,.02-.15,.32-.31,.68-.24,1.08,.07,.17,.17,.31,.33,.38,.25,.04,.4-.16,.66-.24,.26,.17,.58,.32,.87,.49-.03,.11-.03,.17-.05,.2-.14,.17-.3,.32-.41,.44-.61,.14-1.13-.09-1.66-.16-.14-.02-.28-.09-.36-.22-.08-.13-.2-.21-.34-.25-.14,0-.2,.13-.29,.2-.14,.1-.26,.22-.34,.38q-.08,.61,.17,1.04c.33,.07,.33,.07,.63-.01,.21-.15,.14-.47,.4-.62,.46,.1,.93,.2,1.36,.29,.12,.16,.19,.28,.13,.48-.26,.23-.61,.34-.97,.38-.27,.03-.53,.1-.79,.13-.43,.05-.89,.08-1.32,.01-1.46-.24-2.94-.46-4.36-.91m8.55,6.66c-.93-.01-1.86,0-2.77,0-.19-.08-.34-.17-.5-.21-.58-.17-.95-.58-1.25-1.07-.13-.23-.29-.46-.41-.69-.4-.73-.5-.9-.37-1.88,.07-.14,.18-.23,.31-.3,.13-.07,.24-.16,.35-.23,.14,0,.27-.03,.38,0,.19,.06,.36,.09,.57,.05,.18-.03,.38,.04,.57,.04,.46,.02,.93,.02,1.39,.03,.25,.01,.49,.04,.78,.06,.2-.03,.43-.06,.7-.1,.42-.22,.86-.43,1.24-.74,.33-.26,.68-.48,1.07-.64,.9-.38,1.62-.99,2.27-1.7,.33-.35,.5-.8,.49-1.27-.03-.95,.05-1.91-.09-2.85-.01-.07,0-.14,.01-.21,.02-.34,.04-.68,.06-1.02,.02-.34,.02-.68,.11-1.01,.07-.23,.04-.48,.05-.73,.01-.42,.11-.82,.32-1.19,.17-.29,.29-.62,.54-.94,.12-.07,.29-.17,.45-.27,.29-.18,.6-.33,.85-.57,.36-.34,.76-.42,1.21-.18,.04,.03,.09,.04,.13,.06,.42,.32,.7,.73,.86,1.24,.13,.42,.33,.81,.4,1.25,.01,.09,.05,.19,.1,.27,.3,.62,.37,1.31,.55,1.96,.08,.29,.08,.59,0,.87-.08,.29-.08,.58-.08,.87-.01,.42-.04,.83-.02,1.25,.04,.92-.18,1.79-.5,2.64-.54,1.4-1.29,2.68-2.31,3.8-.43,.47-.8,.98-1.22,1.5-.74,.53-1.43,1.22-2.44,1.45-.34,.05-.65,.1-.97,.16-.93,.19-1.87,.33-2.83,.32m-5.41,3.23c1.17-.55,2.38-1,3.66-1.28,.64-.14,1.29-.28,1.92-.47,.11-.04,.24-.05,.34,.05-.06,.17-.2,.26-.34,.37-.78,.58-1.6,1.12-2.43,1.63-.21,.13-.42,.25-.64,.35-.37,.17-.73,.36-1.09,.56-.43-.43-.86-.85-1.38-1.17-.02-.01-.03-.02-.05-.03,0,0,.01,0,.02-.01m3.54,6.27c-.33-.34-.61-.71-.95-1.01-.16-.22-.38-.36-.56-.55-.23-.25-.45-.51-.68-.75-.35-.36-.71-.72-1.06-1.08-.11-.1-.21-.21-.31-.32-.07-.07-.14-.15-.22-.22-.09-.09-.19-.19-.28-.28-.43-.41-.91-.77-1.39-1.12-.02-.02-.05-.04-.07-.05-.17-.12-.33-.24-.5-.36-.04-.03-.08-.06-.12-.09-.14-.1-.29-.21-.45-.28-.18-.09-.32-.22-.5-.31-.19-.09-.37-.19-.54-.31-.17-.11-.35-.18-.51-.29-.34-.23-.74-.35-1.08-.56-.08-.04-.18-.01-.23-.11,.01-.03,.05-.03,.08-.02,.33,.08,.66,.16,.99,.26,.2,.06,.41,.06,.61,.1,.31,.06,.62,.14,.93,.19,.32,.05,.62,.14,.93,.22,.45,.11,.87,.27,1.27,.51,.01,0,.03,.01,.04,.02,.21,.12,.42,.24,.62,.37,.11,.07,.22,.15,.32,.24,.08,.07,.21,.07,.26,.19,.21,.11,.32,.33,.53,.43,.09,.05,.15,.16,.23,.23,.04,.04,.08,.08,.12,.12,.15,.15,.29,.3,.43,.47,.17,.21,.34,.42,.5,.64,.15,.21,.3,.43,.42,.66,.2,.4,.45,.77,.61,1.19,.05,.12,.07,.25,.12,.37,.04,.11,.12,.21,.12,.34,0,.05,.03,.1,.05,.15,.1,.23,.17,.47,.24,.72,.01,.05,.04,.1,.06,.15,.01,.04,.03,.08,0,.15m19.73,11.21c-.4-.4-.79-.8-1.19-1.2-.52-.52-1.11-.95-1.7-1.39-.62-.47-1.24-.96-1.9-1.39-.95-.62-1.99-1.03-3.09-1.31-.87-.22-1.76-.44-2.65-.55-.68-.09-1.34-.2-2.02-.31-1.11-.18-2.24-.22-3.37-.17-.21,0-.42,.08-.63,.1,0,0-.01,0-.01,0-.09,.01-.2,.03-.29,.04-.09,0-.19,0-.28-.06,.03-.09,.08-.15,.14-.21,.05-.05,.11-.09,.16-.12,.03-.01,.05-.03,.08-.05,.46-.28,.9-.57,1.38-.81,.62-.31,1.31-.43,1.99-.35,1.04,.12,2.09,.1,3.13,.17,.85,.05,1.7,.17,2.51,.42,.73,.21,1.38,.61,2.01,1.04,.3,.21,.6,.41,.91,.62,.59,.4,1.09,.91,1.57,1.43,.31,.34,.61,.69,.97,1,.31,.27,.57,.6,.82,.93,.53,.67,1.05,1.35,1.57,2.03,.04,.05,.05,.13,.07,.18-.09,.09-.14,.01-.18-.03m1.22,.64c-.14-.02-.17-.12-.22-.19-.52-.8-1.07-1.58-1.66-2.33-.42-.54-.83-1.09-1.33-1.56-.4-.39-.82-.78-1.17-1.21-.41-.49-.89-.91-1.41-1.27-.54-.38-1.08-.75-1.63-1.12-.47-.32-.98-.55-1.53-.71-.79-.23-2.44-.46-3.26-.46-.51,0-1.04,.03-1.54-.06-.46-.08-.92-.06-1.39-.07-.52,0-1.04,.12-1.49,.35-.54,.28-1.08,.58-1.57,.96-.07-.13-.14-.26-.21-.39-.11-.2-.21-.41-.35-.59-.14-.2-.26-.4-.38-.59,.01-.05,.02-.08,.02-.11-.02-.02-.03-.04-.04-.06-.41-.41-.67-.91-.94-1.42-.15-.29-.24-.61-.37-.91-.11-.25-.18-.51-.25-.77-.07-.27-.17-.52-.22-.79-.09-.12-.08-.27-.1-.36-.06-.13-.12-.21-.15-.3-.13-.41-.36-.77-.57-1.14-.04-.08-.12-.13-.15-.21-.08-.21-.24-.36-.34-.56-.1-.19-.24-.36-.38-.52,0,0,0-.01-.01-.01,.04-.01,.08-.03,.11-.05,.78-.36,1.49-.84,2.21-1.28,.66-.41,1.3-.86,1.9-1.37,.31-.27,.66-.5,1.03-.7,.5-.26,.99-.55,1.44-.88,.38-.28,.79-.49,1.23-.64,.43-.14,.79-.39,1.14-.65,.2-.15,.38-.31,.58-.46,.24-.17,.43-.39,.62-.62,.3-.38,.63-.73,.95-1.09,.49,.2,.91,.46,1.27,.79,.49,.45,.93,.94,1.31,1.48,.14,.2,.29,.39,.47,.56,.33,.33,.61,.7,.88,1.08,.09,.12,.16,.25,.26,.35,.37,.43,.67,.9,.96,1.38,.32,.55,.64,1.09,.96,1.64,.34,.59,.67,1.2,.91,1.84,.54,1.47,1.05,2.94,1.58,4.41,.03,.07,.05,.14-.01,.2-.11,0-.17-.07-.23-.14-.47-.44-.84-.95-1.22-1.46-.7-.94-1.43-1.86-2.29-2.67-.35-.34-.7-.68-1.11-.96-.71-.49-1.54-.6-2.36-.7-.1-.01-.2,0-.29,.01-.53,.1-1.06,.17-1.58,.3-.5,.13-1.01,.2-1.47,.46-.1,.06-.23,.08-.35,.1-.29,.05-.58,.09-.87,.14-.19,.04-.38,.1-.52,.26-.02,.14-.07,.28,.09,.43,.3,.07,.65,.08,.97-.03,.73-.26,1.47-.16,2.18-.04,.91,.15,1.8,.47,2.65,.85,.71,.32,1.42,.64,2.11,1.02,1.25,.68,2.46,1.41,3.47,2.42,.41,.4,.79,.8,1.04,1.31,.1,.2,.26,.34,.41,.49,.46,1.43,.76,2.88,1.19,4.31,.37,1.21,.64,2.45,.96,3.67,.06,.22,.11,.42,.04,.63m-5.2-12.46c-.23,.09-.36-.06-.5-.14-.49-.27-.97-.56-1.46-.84-.7-.41-1.44-.72-2.19-1.02-.75-.3-1.5-.58-2.29-.75-.09-.02-.18-.08-.21-.19,.13-.14,.32-.08,.47-.12,.17-.05,.33-.1,.5-.13,.88-.16,.88-.14,1.73,.03,.61,.12,1.15,.37,1.64,.76,.71,.56,1.38,1.17,1.92,1.91,.12,.17,.3,.3,.4,.5m9.04,23.3c.16-.66,.39-1.29,.79-1.86,.47-.65,1-1.25,1.5-1.88,.06-.08,.14-.13,.32-.1-.22,.72-.5,1.36-.84,1.98-.11,.19-.24,.36-.38,.53-.43,.56-.87,1.1-1.3,1.66-.14-.1-.13-.23-.1-.34"/><path class="cls-9" d="M93.06,118.62c-.07-.04-.14-.08-.21-.13-.3-.18-.63-.35-1.05-.34,.06,.1,.09,.19,.14,.22,.16,.07,.32,.14,.47,.22,.24,.13,.47,.26,.7,.42,.13-.03,.26-.05,.4-.08,.02,0,.04,0,.06,0-.17-.1-.34-.21-.51-.31m0,0c-.07-.04-.14-.08-.21-.13-.3-.18-.63-.35-1.05-.34,.06,.1,.09,.19,.14,.22,.16,.07,.32,.14,.47,.22,.24,.13,.47,.26,.7,.42,.13-.03,.26-.05,.4-.08,.02,0,.04,0,.06,0-.17-.1-.34-.21-.51-.31m4.88,24l-.34,.34c.06,.14,.12,.28,.18,.42l.05-.05c.16-.16,.3-.32,.34-.54-.08-.06-.16-.12-.24-.17m.6,1.77c-.07,.09-.13,.17-.2,.26-.01,.01-.02,.03-.03,.04,0,.01,.01,.02,.01,.03,.05,.14,.11,.28,.17,.42,.09-.09,.17-.18,.25-.28-.07-.16-.14-.31-.2-.47m.53-.72c-.07,.09-.13,.18-.2,.28,.11,.09,.21,.18,.31,.27,0,0,.01,.01,.02,.02,.04-.05,.07-.1,.1-.15,.03-.05,.06-.1,.09-.14-.11-.09-.22-.18-.32-.28m-6.01-25.05c-.07-.04-.14-.08-.21-.13-.3-.18-.63-.35-1.05-.34,.06,.1,.09,.19,.14,.22,.16,.07,.32,.14,.47,.22,.24,.13,.47,.26,.7,.42,.13-.03,.26-.05,.4-.08,.02,0,.04,0,.06,0-.17-.1-.34-.21-.51-.31m0,0c-.07-.04-.14-.08-.21-.13-.3-.18-.63-.35-1.05-.34,.06,.1,.09,.19,.14,.22,.16,.07,.32,.14,.47,.22,.24,.13,.47,.26,.7,.42,.13-.03,.26-.05,.4-.08,.02,0,.04,0,.06,0-.17-.1-.34-.21-.51-.31m0,0c-.07-.04-.14-.08-.21-.13-.3-.18-.63-.35-1.05-.34,.06,.1,.09,.19,.14,.22,.16,.07,.32,.14,.47,.22,.24,.13,.47,.26,.7,.42,.13-.03,.26-.05,.4-.08,.02,0,.04,0,.06,0-.17-.1-.34-.21-.51-.31m-1.26-.47c.06,.1,.09,.19,.14,.22,.16,.07,.32,.14,.47,.22,.14-.04,.29-.07,.44-.1-.3-.18-.63-.35-1.05-.34"/><path class="cls-9" d="M118.37,135.87c-.35,.21-.72,.41-1.05,.66-.01,.01-.03,.02-.04,.03,.04,.13,.09,.26,.13,.39,.32-.27,.64-.54,.98-.79,.06-.05,.11-.12,.15-.17-.02-.13-.12-.16-.17-.12m3.55-20.87c-.4,.36-.8,.72-1.2,1.08,.04,0,.08,.02,.12,.04,.05,.06,.09,.12,.12,.18,.39-.4,.76-.82,1.13-1.22-.04-.17-.13-.12-.18-.08m-3.55,20.87c-.35,.21-.72,.41-1.05,.66-.01,.01-.03,.02-.04,.03,.04,.13,.09,.26,.13,.39,.32-.27,.64-.54,.98-.79,.06-.05,.11-.12,.15-.17-.02-.13-.12-.16-.17-.12m3.55-20.87c-.4,.36-.8,.72-1.2,1.08,.04,0,.08,.02,.12,.04,.05,.06,.09,.12,.12,.18,.39-.4,.76-.82,1.13-1.22-.04-.17-.13-.12-.18-.08m0,0c-.4,.36-.8,.72-1.2,1.08,.04,0,.08,.02,.12,.04,.05,.06,.09,.12,.12,.18,.39-.4,.76-.82,1.13-1.22-.04-.17-.13-.12-.18-.08m-3.55,20.87c-.35,.21-.72,.41-1.05,.66-.01,.01-.03,.02-.04,.03,.04,.13,.09,.26,.13,.39,.32-.27,.64-.54,.98-.79,.06-.05,.11-.12,.15-.17-.02-.13-.12-.16-.17-.12m3.55-20.87c-.4,.36-.8,.72-1.2,1.08,.04,0,.08,.02,.12,.04,.05,.06,.09,.12,.12,.18,.39-.4,.76-.82,1.13-1.22-.04-.17-.13-.12-.18-.08m0,0c-.4,.36-.8,.72-1.2,1.08,.04,0,.08,.02,.12,.04,.05,.06,.09,.12,.12,.18,.39-.4,.76-.82,1.13-1.22-.04-.17-.13-.12-.18-.08m0,0c-.4,.36-.8,.72-1.2,1.08,.04,0,.08,.02,.12,.04,.05,.06,.09,.12,.12,.18,.39-.4,.76-.82,1.13-1.22-.04-.17-.13-.12-.18-.08m0,0c-.4,.36-.8,.72-1.2,1.08,.04,0,.08,.02,.12,.04,.05,.06,.09,.12,.12,.18,.39-.4,.76-.82,1.13-1.22-.04-.17-.13-.12-.18-.08m-3.55,20.87c-.35,.21-.72,.41-1.05,.66-.01,.01-.03,.02-.04,.03,.04,.13,.09,.26,.13,.39,.32-.27,.64-.54,.98-.79,.06-.05,.11-.12,.15-.17-.02-.13-.12-.16-.17-.12m0,0c-.35,.21-.72,.41-1.05,.66-.01,.01-.03,.02-.04,.03,.04,.13,.09,.26,.13,.39,.32-.27,.64-.54,.98-.79,.06-.05,.11-.12,.15-.17-.02-.13-.12-.16-.17-.12m3.3-3.84c-.77,.36-1.52,.78-2.25,1.22-.9,.54-1.78,1.11-2.63,1.73,.04,.16,.09,.31,.14,.47,.12-.09,.23-.18,.34-.27,1.08-.83,2.26-1.48,3.39-2.23,.35-.23,.72-.44,1.1-.63-.04-.1-.07-.2-.1-.3m.25-17.04c-.4,.36-.8,.72-1.2,1.08,.04,0,.08,.02,.12,.04,.05,.06,.09,.12,.12,.18,.39-.4,.76-.82,1.13-1.22-.04-.17-.13-.12-.18-.08m0,0c-.4,.36-.8,.72-1.2,1.08,.04,0,.08,.02,.12,.04,.05,.06,.09,.12,.12,.18,.39-.4,.76-.82,1.13-1.22-.04-.17-.13-.12-.18-.08m-3.55,20.87c-.35,.21-.72,.41-1.05,.66-.01,.01-.03,.02-.04,.03,.04,.13,.09,.26,.13,.39,.32-.27,.64-.54,.98-.79,.06-.05,.11-.12,.15-.17-.02-.13-.12-.16-.17-.12m3.55-20.87c-.4,.36-.8,.72-1.2,1.08,.04,0,.08,.02,.12,.04,.05,.06,.09,.12,.12,.18,.39-.4,.76-.82,1.13-1.22-.04-.17-.13-.12-.18-.08m-3.55,20.87c-.35,.21-.72,.41-1.05,.66-.01,.01-.03,.02-.04,.03,.04,.13,.09,.26,.13,.39,.32-.27,.64-.54,.98-.79,.06-.05,.11-.12,.15-.17-.02-.13-.12-.16-.17-.12m3.55-20.87c-.4,.36-.8,.72-1.2,1.08,.04,0,.08,.02,.12,.04,.05,.06,.09,.12,.12,.18,.39-.4,.76-.82,1.13-1.22-.04-.17-.13-.12-.18-.08m-3.55,20.87c-.35,.21-.72,.41-1.05,.66-.01,.01-.03,.02-.04,.03,.04,.13,.09,.26,.13,.39,.32-.27,.64-.54,.98-.79,.06-.05,.11-.12,.15-.17-.02-.13-.12-.16-.17-.12"/><path class="cls-9" d="M128.39,136.2s.08-.05,.12-.09c.23-.48,.47-.96,.73-1.43,.5-.92,.91-1.89,1.4-2.82,.03-.05,.04-.1,.06-.14,.26-.61,.53-1.22,.79-1.83,.14-.34,.3-.67,.43-1.01,.08-.21,.14-.43,.22-.64,.08-.21,.17-.42,.27-.63,.12-.16,.24-.34,.38-.5,.4-.46,.75-.97,1.27-1.31,.04-.03,.08-.07,.11-.11,.45-.51,.95-.98,1.46-1.43,.23-.19,.4-.44,.63-.63,.17-.15,.36-.28,.47-.49,.12-.21,.36-.28,.49-.47,.01-.01,.03-.02,.04-.04,.2-.32,.49-.55,.73-.83,.13-.14,.27-.28,.38-.43,.38-.5,.75-1.01,1.08-1.55,.2-.31,.38-.63,.58-.94,.37-.59,.69-1.22,.99-1.85,.08-.16,.11-.34,.2-.48,.16-.27,.26-.57,.38-.86,.27-.68,.53-1.37,.82-2.04,.22-.52,.5-1.01,.71-1.52,.21-.52,.45-1.02,.71-1.52,.25-.5,.51-1,.79-1.48,.26-.46,.55-.9,.73-1.39,.03-.08,.07-.16,.12-.23,.22-.3,.36-.64,.54-.96,.01-.03,0-.07,0-.14-.11-.11-.25-.12-.42-.06-.07,.09-.15,.19-.21,.27-.21,.11-.39,.21-.58,.3-.24,.26-.52,.47-.82,.66-.08,.05-.15,.1-.22,.15-.33,.23-.58,.57-.97,.7-.05,.01-.08,.07-.12,.1-.12,.1-.25,.2-.37,.29-.28,.21-.57,.41-.83,.64-.54,.48-1.06,.97-1.58,1.47-.25,.24-.51,.48-.76,.72-.62,.57-1.22,1.16-1.73,1.83-.09,.12-.21,.23-.31,.35-.22,.25-.45,.5-.64,.77-.45,.65-.89,1.3-1.32,1.96-.25,.4-.46,.83-.68,1.24-.43,.79-.67,1.65-.95,2.5-.16,.46-.28,.94-.42,1.4-.01,.05-.03,.1-.04,.15-.18,.96-.39,1.91-.54,2.88-.12,.83-.34,1.64-.52,2.45-.04,.19-.07,.38-.13,.56-.12,.35-.25,.69-.39,1.03-.34,.82-.67,1.65-1.04,2.46-.33,.74-.67,1.46-1.03,2.18-.51,1.01-1.06,2.01-1.53,3.04-.24,.53-.48,1.05-.68,1.59-.32,.89-.61,1.79-.91,2.68-.04,.13-.09,.26-.16,.39-.01,.04-.07,.06-.14,.11,.07-.46,.06-.89,.13-1.32,.1-.64,.12-1.29,.21-1.92,.05-.36,.07-.73,.11-1.09,.01-.1,.03-.21,.06-.31,.13-.46,.16-.92,.22-1.39,.02-.17,.04-.35,.07-.52,.1-.78,.23-1.55,.22-2.34,0-.69-.11-1.35-.31-2-.22-.68-.44-1.36-.65-2.05-.18-.62-.45-1.21-.66-1.82-.19-.54-.39-1.08-.59-1.63-.13-.36-.29-.71-.41-1.07-.07-.21-.22-.36-.29-.56-.17-.48-.42-.92-.67-1.37-.41-.75-.82-1.51-1.18-2.29-.18-.38-.39-.75-.51-1.15-.07-.21-.14-.41-.22-.61,.67-.68,1.24-1.44,1.74-2.26,.63-1.04,1.04-2.19,1.66-3.24,.11-.18,.19-.4,.13-.61-.08-.13-.19-.12-.3-.11-1.02,.44-1.94,1.07-2.87,1.65-1.81,1.13-3.49,2.44-5.01,3.94-.87,.86-1.71,1.72-2.41,2.73-.56,.82-.99,1.7-1.35,2.64-.2,.52-.31,1.05-.49,1.58-.11,.31-.18,.62-.18,.95,0,.38-.1,.74-.28,1.09,.02-.24,.04-.49,.06-.68-.06-.29-.15-.53-.15-.78-.01-1.24-.17-2.47-.28-3.7-.09-1.07-.17-2.14-.28-3.21-.09-.9-.15-1.81-.29-2.71-.12-.77-.14-1.52-.07-2.3,.08-.85,.15-1.69,.31-2.53,.11-.54,.22-1.08,.33-1.63,.13-.65,.38-1.26,.69-1.85,.45-.86,1.07-1.6,1.66-2.37,.58-.74,1.25-1.4,1.93-2.05,.43-.42,.9-.82,1.3-1.18,.49-.12,.93-.21,1.35-.33,.82-.22,1.66-.15,2.46,.03,.8,.17,1.58,.47,2.36,.76,.72,.27,1.45,.53,2.23,.64,1.01,.14,2.01,.36,3.04,.43,.67,.04,1.32,.05,1.98-.02,.16-.02,.33-.05,.49-.06,.75-.05,1.48-.2,2.19-.46,.04-.01,.06-.07,.09-.11-.03-.14-.06-.27-.19-.35-.05-.02-.09-.05-.15-.06-.86-.12-1.65-.45-2.49-.64-.08-.01-.16-.04-.24-.06-1.05-.42-2.11-.83-3.22-1.08-.69-.32-1.43-.41-2.16-.57-1.26-.29-2.53-.25-3.78,.02-.35,.08-.7,.2-1.05,.27-.15,.03-.3,.16-.47,.03,.03-.15,.17-.21,.28-.27,.45-.28,.91-.53,1.35-.81,1.2-.75,2.5-1.3,3.82-1.8,.75-.29,1.5-.56,2.21-.94,.22-.12,.43-.25,.67-.34,.58-.21,1.1-.52,1.59-.88,.82-.61,1.55-1.31,2.02-2.26,.51-1.04,.96-2.1,1.4-3.17,.06-.15,.1-.32,.04-.49-.08-.13-.18-.21-.39-.14-.43,.41-.88,.85-1.4,1.22-.74,.54-1.39,1.19-2,1.86-.45,.5-.78,1.07-1.01,1.7-.1,.29-.2,.57-.33,.85-.41,.91-1.08,1.52-2.03,1.81-.32,.1-.66,.16-.95,.3-.84,.42-1.74,.72-2.6,1.09-.41,.18-.81,.36-1.18,.61-.39,.27-.77,.55-1.18,.77-.98,.52-1.88,1.17-2.78,1.81-.45,.32-.89,.67-1.28,1.06-.6,.6-1.24,1.17-1.79,1.83-.64,.76-1.33,1.48-2.03,2.25-.04-.15-.07-.28-.07-.31,.08-.36,.15-.63,.2-.9,.13-.68,.26-1.36,.39-2.04,.09-.46,.17-.92,.3-1.38,.13-.47,.25-.95,.37-1.42,.18-.73,.41-1.43,.6-2.15,.18-.69,.35-1.39,.59-2.06,.16-.44,.23-.91,.42-1.34,.35-.81,.74-1.6,1.3-2.3,.62-.78,1.19-1.59,1.63-2.48,.25-.52,.55-1.01,.84-1.52,.68-1.2,1.37-2.39,2.1-3.56,.7-1.12,1.43-2.23,2.26-3.27,.67-.85,1.58-1.36,2.52-1.84,.07-.04,.16-.04,.23-.05,.35,.02,.67,.12,.95,.06,.34,.11,.66,.16,.92,.3,.55,.29,1.16,.36,1.75,.48,.44,.09,.88,.07,1.32-.02,.74-.15,1.42-.45,2.1-.76,.8-.37,1.61-.73,2.49-.9,.16-.03,.33-.07,.4-.28-.06-.04-.12-.11-.19-.12-.38-.06-.77-.16-1.15-.14-.45,.01-.88-.07-1.32-.15-.46-.09-.94-.11-1.37-.32-.07-.03-.16-.06-.24-.05-.47,.04-.93-.09-1.4-.16-.42-.06-.83-.03-1.23,.06-.63,.13-1.22,.37-1.73,.77-.51,.4-1.12,.58-1.71,.79-.01,0-.04-.03-.07-.04,.02-.05,.03-.1,.06-.14,.47-.47,.93-.94,1.41-1.41,.41-.4,.89-.76,1.25-1.21,.69-.85,1.62-1.42,2.42-2.13,.14-.13,.32-.22,.49-.32,.38-.22,.76-.45,1.15-.66,.24-.13,.49-.25,.71-.36,.3,.09,.57,.17,.84,.26,.57,.42,1.15,.85,1.74,1.26,.41,.28,.83,.54,1.28,.75,.52,.25,1.08,.42,1.59,.68,.61,.3,1.25,.43,1.96,.47,.5-.23,1.02-.5,1.56-.72,.54-.22,.93-.58,1.22-1.13,.1-.55,.21-1.14,.33-1.74,.05-.28,.04-.55-.07-.73-.32-.46-.81-.61-1.13-.96,.06-.36,.15-.72,.16-1.07,0-.38-.06-.77-.09-1.11,.08-.42,.15-.8,.22-1.18,.09-.54-.07-.98-.52-1.31-.2-.14-.4-.29-.61-.42-.26-.15-.53-.29-.8-.44-.07-.04-.13-.09-.15-.1-.17-.26-.3-.47-.39-.63-.39-.16-.7-.29-.96-.39-.34,.04-.64,.08-.88,.11-.42-.29-.41-.78-.67-1.02-.18-.13-.32-.14-.45-.06-.14,.08-.29,.17-.41,.28-.42,.38-.71,.86-.95,1.34-.45,.9-1.03,1.7-1.66,2.47-.47,.59-.9,1.19-1.06,1.95-.03,.16-.12,.3-.19,.47,.09,.45-.02,.89-.11,1.31-.09,.44,.09,.89-.07,1.24-.37,.27-.66,.55-1,.72-.85,.41-1.59,1-2.38,1.51-.56,.36-1.06,.81-1.53,1.27-1.15,1.12-2.26,2.27-3.37,3.43-.51,.54-1,1.11-1.48,1.68-.45,.53-.87,1.07-1.29,1.6-.08-.01-.13-.02-.22-.04,.01-.16,.01-.33,.04-.48,.13-.84,.3-1.68,.29-2.54,0-.19,.03-.41,.13-.56,.2-.31,.24-.68,.35-.98,.24-.38,.55-.66,.85-.95,1.11-1.08,2.2-2.18,3.25-3.32,1.08-1.17,1.86-2.52,2.48-3.98,.27-.63,.53-1.27,.79-1.91,.15-.36,.29-.72,.42-1.08,.02-.07-.03-.15-.04-.21-.12-.07-.23-.09-.43-.02,0,0-.06,.05-.12,.1-1.19,1.11-2.38,2.23-3.57,3.34-.22,.21-.48,.38-.69,.59-.5,.51-.99,1.04-1.47,1.57-.16,.18-.34,.38-.44,.6-.3,.65-.61,1.3-.79,1.99-.18,.69-.37,1.38-.56,2.07,0,.03-.04,.04-.06,.06-.16-.04-.2-.17-.2-.3-.01-.75-.24-1.47-.47-2.17-.42-1.28-.99-2.52-1.3-3.84-.02-.08-.05-.16-.08-.23-.14-.52-.44-.96-.81-1.33-.87-.86-1.88-1.52-3.08-1.88-.32-.1-.63-.21-.92-.36-.35-.17-.66-.4-.82-.79-.03-.07-.11-.12-.15-.16-.18-.05-.29,0-.35,.18,.25,.62,.51,1.26,.76,1.9,.3,.75,.77,1.4,1.24,2.05,.23,.32,.54,.57,.88,.74,.37,.18,.74,.4,1.16,.44,.42,.04,.8,.22,1.17,.4,.5,.24,.99,.54,1.21,1.09,.35,.87,.69,1.75,.91,2.66,.26,1.08,.3,2.18,.31,3.28,0,.5-.09,.99-.09,1.48-.01,.97-.06,1.93-.21,2.88-.04,.22-.03,.44-.05,.74-.25,.4-.55,.87-.84,1.34-.59,.94-1.2,1.86-1.75,2.81-.46,.78-.88,1.59-1.29,2.41-.35,.69-.82,1.31-1.26,1.94-.06,.08-.13,.18-.3,.12-.03-.08-.09-.17-.09-.28-.05-.79-.07-1.59-.13-2.39-.07-.85-.07-1.7-.29-2.54-.31-1.17-.6-2.35-.88-3.53-.35-1.48-.98-2.87-1.49-4.3-.03-.07-.09-.14-.12-.19-.13-.11-.27-.14-.41-.1-.07,.03-.13,.09-.21,.15,.02,.33,.04,.66,.07,.99,.08,.9,.18,1.81,.24,2.71,.09,1.48,.12,2.97,.22,4.45,.06,.85,.17,1.69,.48,2.5,.38,.99,.89,1.9,1.51,2.75,.2,.27,.39,.53,.54,.75,.03,.24-.01,.4-.1,.55-.33,.59-.51,1.22-.64,1.87-.05,.24-.13,.48-.2,.72-.2,.63-.43,1.25-.58,1.89-.26,1.13-.68,2.21-.84,3.37-.01,.08-.03,.17-.07,.24-.28,.49-.26,1.07-.5,1.57-.23,1.16-.47,2.31-.7,3.47-.07,.35-.19,.7-.12,1.06-.15,.48-.05,.99-.19,1.47-.05,.18-.06,.39-.04,.57,.03,.28-.04,.55-.07,.82-.01,.14-.06,.27-.07,.41-.02,.13-.01,.26-.01,.39-.12,0-.17-.05-.18-.13-.22-1.14-.42-2.28-.65-3.41-.31-1.54-.63-3.08-1.07-4.59-.04-.16-.09-.32-.12-.48-.3-1.69-.85-3.31-1.4-4.93-.3-.89-.55-1.79-.82-2.69-.29-.95-.57-1.9-.86-2.85-.14-.47-.31-.94-.45-1.35,.07-.8,.08-1.54,.28-2.26,.13-.45,.2-.92,.37-1.34,.46-1.12,.88-2.26,1.56-3.27,.18-.27,.35-.56,.5-.86,.34-.69,.53-1.45,.73-2.19,.28-1.04,.44-2.11,.64-3.17,.04-.24,.06-.5,.04-.74-.08-.79-.22-1.58-.44-2.32-.88-.93-1.94-1.39-3.09-1.55-.37,.07-.66,.15-.94,.3-.22,.2-.45,.4-.66,.58-.24,.4-.47,.77-.71,1.15-.26-.1-.49-.18-.71-.29-.28-.14-.58-.21-.88-.2-.38,0-.77,0-1.15,.12-.87,.24-1.76,.23-2.63,.13-.71-.09-1.42-.23-2.24-.14-.17,.06-.43,.16-.69,.24-.51,.15-.87,.46-1.1,.94-.09,.2-.21,.39-.29,.6-.22,.58-.55,1.07-1.07,1.44-.4,.28-.68,.64-.91,1.05,.01,.46,.1,.88,.26,1.3,.17,.43,.5,.78,.63,1.29-.59,.23-1.25,.03-1.79,.4-.02,.1-.06,.21-.05,.31,.04,.56,.44,.94,.66,1.33,.08,.36,.15,.66,.21,.89,.54,.92,1.39,1.35,2.26,1.69,.71,.28,1.46,.53,2.24,.61,.25,.02,.49,.08,.73,.17,.56,.21,1.17,.31,1.67,.69,.09,.07,.2,.1,.3,.15,1,.47,2.01,.91,3,1.41,.56,.28,1.14,.55,1.61,1,.1,.09,.21,.18,.33,.26,.51,.35,.92,.79,1.24,1.36,.31,1.08,.67,2.19,.93,3.31,.24,1.05,.57,2.08,.85,3.11,.11,.4,.29,.78,.39,1.18,.16,.61,.35,1.21,.5,1.83,.13,.48,.17,.97,.28,1.46,.01,.05-.07,.13-.12,.25-.64-1.14-1.23-2.27-2.15-3.11-.12-.3-.22-.56-.33-.81-.25-.61-.6-1.18-.99-1.72-.21-.29-.45-.57-.75-.78-.87-.6-1.8-1.06-2.84-1.3-1.02-.23-2.08-.31-3.08-.69-.91-.34-1.82-.64-2.63-1.18-.25-.17-.5-.32-.72-.45-.16,.03-.19,.12-.18,.2,.02,.16,.05,.33,.12,.48,.31,.77,.64,1.52,.95,2.29,.23,.58,.6,1.06,1.05,1.47,.77,.7,1.68,1.18,2.69,1.42,.97,.22,1.94,.47,2.95,.4,.14,0,.28,.04,.41,.05,.59,.06,1.1,.34,1.66,.52,.73,.23,1.24,.81,1.91,1.15,.07,.04,.13,.11,.18,.17,.48,.61,.93,1.24,1.29,1.92,.36,.69,.7,1.38,1.06,2.06,.22,.42,.42,.84,.54,1.3,.33,1.31,.66,2.62,.85,3.96,.09,.65,.21,1.3,.32,1.96,.09,.57,.17,1.14,.26,1.71,.01,.11,.01,.22-.09,.3-.11-.05-.15-.15-.18-.26-.29-.88-.92-1.57-1.32-2.38-.04-.08-.1-.13-.16-.2-.17-.22-.35-.43-.51-.65-.25-.33-.47-.69-.75-1-.72-.8-1.46-1.59-2.25-2.32-.55-.51-1.08-1.05-1.67-1.49-.57-.42-1.12-.9-1.8-1.17-.31-.12-.54-.36-.74-.64-.39-.54-.8-1.05-1.22-1.57-.17-.21-.38-.4-.59-.58-.38-.32-.79-.62-1.29-.73-.59-.14-1.2-.28-1.8-.3-.64-.02-1.27-.11-1.9-.23-.7-.13-1.41-.27-2.09-.5-.73-.25-1.36-.61-1.88-1.16-.03-.04-.1-.04-.15-.06-.18,0-.32,.08-.34,.29,.1,.27,.36,.4,.54,.61,.79,.89,1.59,1.76,2.39,2.64,.49,.54,1.03,1,1.63,1.41,.32,.22,.67,.39,1.04,.49,.97,.24,1.95,.43,2.91,.55,.12-.02,.2-.04,.28-.05,.49-.1,.98-.19,1.46-.3,.42-.09,.83-.06,1.19,.19,.11,.08,.25,.13,.36,.2,.88,.63,1.72,1.3,2.51,2.04,.68,.65,1.33,1.32,1.99,2,.37,.38,.74,.75,1.05,1.17,.58,.8,1.21,1.57,1.74,2.42,.76,1.2,1.34,2.47,1.83,3.8,.08,.2,.11,.43,.13,.64,.09,1.12,.13,2.25,.22,3.37,.08,.99,.14,1.97,.18,2.96,.04,.87,.08,1.76,.25,2.63,.04,.22,.07,.44,.08,.66,.04,1.13,.21,2.25,.31,3.37,.12,1.31,.21,2.63,.24,3.95,.01,.77-.03,1.54-.05,2.31-.03,.85-.02,1.7-.16,2.55-.01,.08-.03,.17-.02,.25,.05,.53-.05,1.05-.13,1.56-.02,.14-.07,.28-.04,.41,.07,.34-.03,.66-.08,.99-.04,.3-.14,.6-.13,.9,.02,.81-.2,1.59-.3,2.38-.09,.74-.33,1.46-.28,2.21,.01,.13-.03,.28-.08,.4-.25,.56-.33,1.17-.45,1.76-.03,.13-.07,.26-.16,.57-.07-.42-.11-.65-.15-.88-.18-1.03-.22-2.08-.43-3.11-.17-.81-.29-1.63-.46-2.44-.06-.3-.16-.59-.28-.87-.24-.56-.43-1.13-.6-1.72-.22-.74-.47-1.47-.74-2.2-.19-.51-.45-1.01-.68-1.51-.21-.45-.41-.9-.64-1.34-.23-.44-.5-.86-.71-1.31-.16-.35-.36-.69-.41-1.11,.05-.1,.11-.22,.18-.35,.21-.39,.47-.76,.61-1.17,.25-.73,.49-1.46,.63-2.22,.22-1.18,.24-2.35,.12-3.54-.13-1.29-.39-2.56-.72-3.81-.36-1.36-.78-2.7-1.24-4.03-.05-.16-.13-.3-.32-.37-.07,.03-.15,.05-.22,.1-.07,.04-.13,.1-.2,.17-.07,.34-.08,.7-.12,1.05-.08,.82-.16,1.65-.25,2.47-.12,1.18-.41,2.33-.49,3.52-.07,1.02-.11,2.03,.06,3.04,.08,.49,.19,.97,.28,1.46,.01,.07,0,.16-.1,.18-.7-1.18-1.29-2.44-2.08-3.56-.8-1.12-1.67-2.2-2.6-3.21-.16-.38-.17-.8-.38-1.17-.07-.13-.14-.25-.21-.38-.13-.22-.25-.44-.38-.66-.31-.54-.62-1.07-.97-1.59-.04-.06-.08-.11-.12-.17-.21-.29-.43-.56-.67-.82-.76-.82-1.68-1.46-2.74-1.94-.28-.12-.57-.21-.84-.36-.56-.32-1.17-.49-1.81-.58-.72-.1-1.38-.38-2.07-.6-.71-.22-1.39-.54-2.08-.8-.15-.06-.32-.07-.48-.09q-.24,.12-.29,.32c.26,.25,.54,.48,.78,.75,.24,.26,.45,.56,.67,.83,.77,.97,1.54,1.95,2.32,2.91,.17,.21,.35,.4,.54,.59,.13,.13,.27,.25,.41,.37,.1,.08,.2,.16,.3,.23,.84,.63,1.74,1.15,2.71,1.55,.18,.08,.37,.14,.56,.21h0c.18,.07,.38,.11,.57,.1,.85-.05,1.64,.22,2.44,.34,.16,.13,.3,.21,.41,.34,.61,.71,1.31,1.35,1.82,2.15,.05,.07,.09,.14,.15,.2,.69,.65,1.1,1.52,1.73,2.22,.59,1.03,1.21,2.04,1.71,3.12,.5,1.07,1.03,2.14,1.45,3.25,.04,.11,.21,.2,.1,.35-.18,.06-.33,0-.48-.09-.93-.5-1.91-.87-2.96-1.03-.22-.03-.42-.13-.65-.2-.14,0-.31,.03-.47,.02-.88-.09-1.76-.1-2.64,.01-.33,.04-.66,.09-.97,.21-.52,.19-1.03,.41-1.55,.6-.65,.24-1.3,.47-1.95,.69-.71,.24-1.44,.39-2.18,.52-.27,.05-.54,.1-.78,.26-.09,.07-.16,.15-.15,.27,.12,.15,.29,.16,.45,.14,.84-.1,1.66-.01,2.47,.15,.84,.17,1.69,.33,2.53,.5,.13,.03,.28,.04,.41,.09,.88,.34,1.82,.48,2.75,.62,.85,.13,1.7,.06,2.52-.3,1.16-.51,2.35-.97,3.43-1.64,.29,.04,.57,.06,.82,.2,.1,.17,.23,.32,.3,.5,.34,.82,.81,1.57,1.07,2.42,.07,.23,.15,.48,.28,.69,.41,.63,.55,1.37,.86,2.05,.37,.83,.67,1.69,.97,2.55,.33,.94,.58,1.9,.73,2.89,.11,.73,.16,1.48,.25,2.21,.15,1.26,.33,2.51,.3,3.78-.01,.42-.04,.84-.2,1.22-.15,.36-.23,.74-.33,1.11-.04,.16-.09,.31-.14,.47-.09-.02-.14-.03-.2-.04-.19-.52-.35-1.04-.57-1.55-.43-1.01-.81-2.04-1.31-3.03-.61-1.2-1.53-2.08-2.57-2.87-.66-.31-1.21-.78-1.78-1.22-.91-.71-1.84-1.41-2.74-2.14-.12-.09-.23-.19-.35-.29-.03,.05-.06,.1-.09,.14-.03,.05-.07,.1-.1,.15,.3,.27,.59,.56,.89,.82,.68,.61,1.46,1.08,2.17,1.65,.67,.54,1.39,.99,2.08,1.5,.91,.67,1.61,1.51,2.16,2.48,.13,.24,.22,.49,.25,.77-.09-.01-.16,0-.17-.04-.46-.66-1.1-1.16-1.72-1.66-.8-.64-1.63-1.23-2.45-1.85-.04-.03-.1-.01-.15-.02-.05,.13,.05,.19,.13,.25,.55,.42,1.11,.83,1.65,1.25,.5,.39,.99,.79,1.48,1.2s.78,.96,1.11,1.49c-.19,.09-.26,0-.35-.07-.49-.36-.98-.72-1.46-1.1-.85-.66-1.78-1.21-2.73-1.72-.89-.48-1.62-1.13-2.08-2.06-.06-.12-.14-.24-.22-.35-.42-.61-.75-1.27-1.04-1.94-.08,.1-.16,.19-.25,.28,.39,.93,.87,1.81,1.42,2.67,.46,.72,1.08,1.24,1.82,1.65,.6,.34,1.21,.66,1.79,1.04,.79,.51,1.54,1.09,2.29,1.65,.67,.5,1.24,1.1,1.68,1.82,.33,.54,.62,1.11,.92,1.67,.08,.14,.14,.3,.22,.47-.3,.63-.36,1.33-.59,1.97-.2,.58-.31,1.17-.43,1.76-.22,1.08-.33,2.19-.76,3.22-.03,.08-.03,.16-.06,.24-.17,.55-.27,1.13-.52,1.65-.3,.63-.31,1.35-.65,1.95-.15,.76-.34,1.5-.58,2.24-.17,.52-.21,1.08-.32,1.62,.04,.19,.08,.38,.14,.62,.16-.45,.28-.87,.46-1.26,.25-.56,.38-1.15,.5-1.75,.06-.3,.17-.58,.26-.86,.22-.65,.49-1.29,.6-1.98,.11-.73,.46-1.35,.84-1.96,.22-.35,.45-.7,.67-1.04,.17-.25,.32-.52,.5-.76,.34-.44,.73-.83,1.03-1.3,.46-.69,1-1.31,1.51-1.96,.19-.25,.41-.45,.66-.62,.52-.36,1.07-.68,1.62-1,.81-.48,1.63-.94,2.47-1.36,.32-.16,.67-.27,.98-.44,.49-.28,1.02-.42,1.58-.46,.41-.03,.82-.08,1.21-.18,.25,.04,.48,.08,.71,.13,.09,.11,.17,.23,.26,.34,.3,.41,.62,.81,.91,1.22,.16,.23,.24,.49,.31,.77,.12,.48,.05,.98,.19,1.45-.01,.69,.16,1.35,.13,2.04-.02,.49-.09,.91-.11,1.4-.04,1.22-.27,2.43-.37,3.65,0,.03,0,.07-.01,.1-.13,.31-.12,.65-.16,.98-.01,.09,0,.18-.03,.26-.13,.47-.22,.95-.31,1.43-.08,.38-.13,.76-.16,1.14-.04,.51-.15,1-.26,1.5-.07,.3-.11,.59-.1,.88,0,.03,.03,.06,.05,.09,.1,.05,.2,.07,.3,0,.02-.03,.04-.05,.05-.09,.08-.3,.12-.62,.19-.92,.09-.38,.14-.76,.17-1.14,0-.09,0-.18,.04-.26,.09-.25,.1-.51,.13-.77,.03-.21,.07-.41,.12-.61,.09-.32,.18-.64,.2-.98,.03-.54,.21-1.06,.23-1.61,0-.05,0-.11,.03-.16,.1-.2,.09-.41,.12-.61,.08-.54,.16-1.07,.24-1.61,0-.05,.04-.1,.05-.15,.12-.49,.31-.96,.51-1.43,.29-.66,.63-1.33,1.08-1.91,.1-.12,.2-.24,.29-.38,.18-.28,.42-.51,.68-.72,.47-.39,.97-.75,1.46-1.11,.53,.29,1.07,.57,1.59,.87,.07,.04,.14,.08,.23-.02,0-.06,.03-.15,0-.22-.16-.38-.33-.76-.55-1.11-.06-.09-.12-.19-.19-.28,.36-.24,.74-.46,1.12-.68,.67-.37,1.33-.78,1.98-1.2,.86-.55,1.71-1.1,2.51-1.73,.87-.68,1.71-1.39,2.5-2.17,.76-.75,1.49-1.53,2.22-2.31,.5-.54,.99-1.09,1.47-1.65,.16-.18,.32-.38,.47-.57,.15-.19,.29-.39,.46-.57,.34-.38,.65-.78,.93-1.21,.11-.16,.23-.31,.34-.46,.23-.33,.45-.66,.68-1,.26-.38,.44-.8,.65-1.2,.06-.12,.12-.25,.2-.36,.33-.46,.53-.99,.72-1.51,.16-.42,.29-.87,.6-1.22,.19-.21,.31-.46,.38-.71,.23-.27,.48-.49,.66-.78-.02-.08-.07-.12-.16-.14-.18,0-.32,.1-.44,.24-.21,.26-.43,.51-.63,.78-.14,.19-.28,.36-.46,.5-.15,.12-.29,.25-.44,.38-.27,.22-.53,.46-.8,.68-.51,.4-1.05,.77-1.61,1.09-1.12,.65-2.24,1.32-3.39,1.91-.67,.34-1.34,.7-1.99,1.08-.84,.5-1.71,.96-2.54,1.48-.86,.54-1.72,1.08-2.53,1.7-.6,.46-1.18,.93-1.75,1.43-.49,.43-.92,.91-1.36,1.38-.07,.08-.13,.16-.2,.25-.31,.4-.57,.84-.81,1.29-.32,.59-.64,1.17-.95,1.76-.13,.24-.24,.49-.35,.74-.45-.36-.92-.65-1.44-.87,.04-.31,.06-.61,.11-.92,.09-.59,.23-1.16,.28-1.76,0-.09,.04-.17,.07-.25,.04-.14,.08-.27,.11-.4,.23-1.18,.47-2.36,.79-3.53,.24-.87,.46-1.76,.75-2.62,.05-.17,.13-.33,.18-.49,.22-.74,.43-1.48,.66-2.21,.22-.68,.47-1.35,.68-2.03,.21-.63,.45-1.24,.73-1.83-.03,0-.06,0-.09,0-.05,0-.09-.03-.13-.05-.06-.06-.09-.12-.06-.22,.13-.18,.34-.3,.54-.44m15.31-26.25c-.41,.71-.73,1.46-1.07,2.21-.1,.22-.21,.44-.32,.66-.12,.23-.21,.48-.32,.72-.38,.9-.76,1.8-1.14,2.7-.18,.42-.37,.83-.57,1.24-.22,.44-.44,.87-.71,1.28-.28,.42-.53,.87-.81,1.29-.4,.59-.84,1.16-1.32,1.69-.33,.36-.68,.71-.99,1.08-.18,.21-.39,.4-.59,.59-.18,.17-.35,.34-.51,.52-.13,.16-.31,.28-.46,.43-.33,.32-.65,.64-.97,.96-.13,.14-.26,.29-.46,.34-.05-.04-.04-.1-.02-.14,.22-.44,.44-.87,.65-1.31,.26-.52,.51-1.03,.76-1.55,.31-.64,.6-1.3,.93-1.93,.3-.57,.63-1.13,.95-1.69,.34-.59,.68-1.18,1.04-1.76,.23-.37,.45-.74,.72-1.09,.47-.61,.93-1.23,1.39-1.84,.07-.1,.16-.19,.24-.28,.46-.55,.92-1.1,1.38-1.64,.15-.17,.32-.33,.47-.5,.54-.6,1.01-1.25,1.49-1.89,.08-.11,.17-.21,.29-.36,.04,.17,0,.23-.04,.29m-10.84,15.31c.2-.95,.32-1.92,.54-2.88,.26-1.14,.64-2.25,1.01-3.36,.1-.32,.24-.65,.43-.95,.06-.1,.1-.22,.14-.34,.05-.11,.09-.23,.15-.33,.41-.64,.81-1.27,1.24-1.89,.34-.49,.68-.97,1.09-1.4,.41-.43,.77-.91,1.16-1.36,.12-.15,.26-.28,.4-.42,.61-.58,1.21-1.16,1.82-1.73,.84-.79,1.72-1.54,2.69-2.17,.32-.21,.6-.47,.94-.74,.04,.04,.07,.05,.11,.09-.03,.06-.06,.12-.1,.17-.3,.38-.62,.76-.91,1.15-.24,.32-.49,.64-.7,.97-.22,.36-.49,.68-.75,1.01-.24,.3-.47,.6-.76,.87-.3,.29-.55,.63-.83,.95-.26,.31-.52,.61-.78,.92-.29,.35-.57,.71-.85,1.07-.11,.13-.23,.26-.27,.44-.01,.06-.08,.12-.12,.17-.35,.37-.61,.81-.9,1.22-.4,.56-.72,1.16-1.07,1.75-.43,.72-.84,1.45-1.26,2.18-.09,.15-.16,.31-.23,.47-.41,.95-.88,1.87-1.33,2.8-.12,.25-.24,.51-.39,.74-.11,.18-.18,.38-.26,.57-.03,.08-.06,.16-.15,.2-.08-.04-.08-.11-.07-.17m-8.96-25.62c.47,.03,.93,.07,1.39,.14,.72,.1,1.38,.39,2.05,.62,.18,.06,.36,.15,.55,.19,.46,.09,.9,.26,1.34,.42,.77,.28,1.55,.54,2.33,.81,.02,.17-.13,.14-.21,.16-.41,.09-.81,.11-1.23,.12-.72,.02-1.43,.02-2.14-.12-.35-.07-.71-.12-1.06-.2-.91-.2-1.82-.46-2.69-.78-.26-.1-.54-.13-.8-.23-.25-.09-.48-.23-.76-.36,.75,.02,1.16,.09,1.73,.31,.44,.17,.9,.25,1.37,.28,.11,0,.21-.03,.23-.18-.62-.23-1.22-.48-1.85-.69-.59-.2-1.24-.19-1.83-.45,.53,0,1.04-.07,1.56-.04m4.65-5.3c.17-.35,.34-.69,.46-1.06,.15-.45,.43-.83,.72-1.2,.45-.6,.99-1.12,1.54-1.61,.27-.24,.54-.47,.82-.7,.06-.05,.14-.07,.21-.1,.02,.04,.05,.07,.04,.08-.2,.46-.38,.92-.61,1.35-.29,.53-.59,1.07-.93,1.56-.23,.34-.53,.63-.84,.91-.42,.39-.89,.73-1.4,1-.1-.1-.05-.17-.01-.24m.59-16.12c.36,.02,.71,.05,1.12-.06-.32-.14-.62-.15-.91-.2-.18-.03-.38-.02-.57-.03-.17,0-.33-.01-.5-.03-.08,0-.17,0-.22-.13-.01-.07,.04-.13,.12-.16,.23-.09,.46-.21,.7-.25,.65-.12,1.3-.18,1.97-.04,1.05,.23,2.12,.4,3.18,.6,.11,.02,.2,.07,.33,.12-.09,.08-.14,.16-.21,.18-.84,.35-1.69,.69-2.54,1.03-.71,.28-1.45,.35-2.2,.21-.43-.08-.87-.14-1.27-.35-.24-.12-.53-.14-.8-.22-.21-.06-.44-.04-.62-.18,0-.06,0-.11,0-.19,.78-.3,1.6-.36,2.43-.31m14.02-6.63c.03,.61-.22,1.21-.3,1.81-.13,.28-.29,.5-.54,.75-.62,.33-1.3,.69-1.98,1.06-.25-.02-.49-.04-.79-.05-.49-.15-.96-.43-1.45-.68-1.12-.59-2.3-1.08-3.35-1.8-.12-.08-.23-.15-.29-.29,.5-.12,.63-.11,2.47,.34,.83,.2,1.58,.61,2.36,.93,.08-.13,.01-.19-.04-.22-.72-.42-1.47-.75-2.25-1.03-.66-.23-1.33-.38-2-.51-.08-.01-.15-.06-.25-.1,.28-.26,.62-.19,.92-.24,.3-.05,.6-.05,.91-.05,.33,0,.65,.11,.99,.1-.02-.09-.01-.16-.05-.18-.07-.04-.15-.09-.22-.08-.58,.04-1.16-.13-1.74-.05-.17,.02-.39,.06-.5-.16,.04-.04,.08-.1,.12-.11,.6-.19,1.21-.39,1.83-.55,.32-.08,.65-.08,.99-.08,.61,0,1.21,.09,1.81,.16,.6,.06,1.21,.04,1.84,.06,.97,.46,1.01,.48,1.52,.99m-4.71-6.42c.05-.31-.07-.6-.1-.86,.08-.14,.18-.17,.3-.19,.19-.02,.38-.03,.58-.05,.19,.03,.34,.16,.57,.31,.09,.15,.21,.36,.31,.55,.43,.24,.81,.46,1.2,.66,.45,.23,.64,.62,.6,1.09-.08,.91-.04,1.81,.12,2.75-.11,.26-.21,.49-.32,.74-.37-.02-.73-.07-1.08-.04-.34,.03-.66-.07-.99-.03-.37,.04-.71-.07-1.07-.09-.72-.04-1.43-.01-2.15,.07-.11,.01-.22,.02-.31-.12,.16-.17,.32-.35,.49-.52,.48-.47,.78-1.06,1.01-1.68,.13-.36,.23-.74,.42-1.08,.26-.48,.32-.99,.41-1.51m-5.2,4.57c.33-1.05,.61-2.11,1.34-2.99,.58-.7,1.07-1.47,1.49-2.28,.24-.46,.52-.91,.92-1.26,.06-.05,.13-.09,.23-.15,.33,.25,.38,.66,.56,.98,.19,.35,.08,.76,.15,1.12-.12,.36-.22,.62-.29,.88-.2,.81-.54,1.56-.92,2.29-.44,.86-1.14,1.48-1.99,1.93-.04,.02-.11,0-.16,0-.08-.06-.08-.15-.04-.22,.22-.35,.41-.72,.73-1,.05-.05,.08-.13,.13-.21-.35,.09-.34,.1-.68,.5-.18,.22-.31,.51-.66,.67,.24-.72,.57-1.31,.93-1.89,.1-.16,.21-.32,.3-.49,.05-.09,.08-.21-.02-.34-.41,.5-.75,1.03-1.05,1.59-.29,.53-.56,1.07-.85,1.64-.26-.25-.03-.52-.1-.76m-10.26,5.87c.46-.85,.92-1.7,1.48-2.48,.29-.4,.49-.85,.87-1.17-.12-.13-.19-.06-.25-.03-.22,.13-.39,.31-.54,.51-.29,.4-.58,.8-.87,1.21-.08,.11-.15,.23-.3,.24-.07-.14-.04-.27,.02-.4,.41-.88,.87-1.72,1.6-2.38,.51-.46,.97-.98,1.45-1.47,.04-.04,.07-.09,.11-.12,.56-.33,.89-.89,1.35-1.33,.34-.33,.66-.67,.99-1,.03-.03,.1-.03,.15-.04,.09,.19,.02,.39-.05,.56-.25,.55-.41,1.14-.66,1.69-.58,1.28-1.28,2.51-2.25,3.55-.95,1-1.92,1.98-2.89,2.97-.05,.05-.14,.08-.21,.12-.09-.15-.06-.29,0-.4m-3.67-5.1c-.4-.16-.54-.52-.81-.74-.27-.22-.51-.48-.76-.73-.07,.05-.1,.08-.1,.08,.23,.48,.73,.74,1.02,1.17-.05,.03-.08,.06-.1,.05-1.04-.14-1.95-.52-2.59-1.43-.52-.75-.99-1.52-1.38-2.34,.07-.13,.19-.1,.28-.06,.85,.34,1.67,.72,2.44,1.22,.98,.65,1.68,1.49,2.05,2.6,0,.03,0,.05-.03,.18m-4.66,18.86s-.03,.04-.09,.13c-.2-.52-.2-1.03-.43-1.49-.07-.03-.14-.04-.2,.07,.08,.83,.21,1.67,.43,2.5,.04,.13,.07,.27-.07,.38-.17-.07-.24-.23-.3-.38-.24-.56-.49-1.11-.71-1.67-.24-.6-.31-1.23-.38-1.86-.12-1.07-.13-2.14-.21-3.21-.07-.93-.14-1.86-.21-2.8,0-.07,.04-.15,.07-.22,.16,0,.19,.12,.22,.21,.21,.69,.44,1.37,.59,2.07,.14,.65,.31,1.29,.51,1.92,.17,.55,.32,1.11,.47,1.66,.18,.68,.34,1.82,.3,2.68m-22.19-10.34c.13-.44,.41-.76,.79-1.02,.69-.47,1.12-1.13,1.38-1.91,.09-.26,.24-.49,.36-.74,.26-.12,.51-.23,.72-.33,.63-.09,1.2-.05,1.78,.08,1.07,.22,2.14,.17,3.21-.06,.16-.04,.32-.07,.46-.09,1.29,.15,1.34,.17,1.83,.66,.04,.33-.13,.59-.32,.82-.21,.25-.44,.49-.68,.73-.32,.31-.61,.64-.84,1.14-.07,.18-.07,.5-.24,.77-.05,.09-.07,.21-.07,.32-.04,.91-.09,1.81-.01,2.72,.04,.44,.17,.86,.34,1.28,.08,.2,.17,.4,.25,.6-.11,.15-.2,.08-.27,0-.11-.12-.22-.25-.3-.39-.25-.42-.62-.71-1.07-.89-.68-.26-1.28-.65-1.91-1.06-.35-.06-.73-.13-1.17-.22-.51,.11-1.09,.14-1.67,.16-.55,.02-1.1,0-1.64,.01-.41-.73-.84-1.94-.91-2.56m8.2,7.32c-.1,.05-.15,.1-.18,.09-.13-.04-.26-.09-.37-.17-.68-.42-1.42-.73-2.16-1.06-.15-.07-.32-.09-.48-.1-.1-.01-.21,.04-.25,.18,1.71,.87,3.35,1.86,4.9,3.05-.22,.09-.37,.02-.52-.05-.67-.32-1.35-.62-2-.98-.88-.48-1.81-.81-2.78-1.04-.81-.19-1.61-.4-2.42-.6-.49-.28-1-.57-1.52-.87-.14-.18-.29-.38-.47-.6,0-.51-.27-.92-.58-1.32-.19-.24-.34-.5-.33-.84,.19-.17,.43-.2,.68-.17,.61,.07,1.21,.05,1.82,.15,.65,.1,1.32,.04,1.98,0,.28-.02,.55-.04,.79-.06,.39,.12,.7,.28,1,.49,.22,.16,.47,.28,.72,.41,1.24,.64,2.14,1.63,2.91,2.75,.28,.41,.57,.82,.85,1.23,.12,.18,.2,.37,.21,.65-.34-.14-.5-.4-.72-.59-.25-.22-.48-.46-.73-.67-.23-.2-.47-.38-.72-.57-.24-.19-.48-.37-.73-.55-.27-.19-.55-.37-.83-.55-.24-.16-.45-.39-.9-.43,1,.79,1.96,1.43,2.84,2.21m4.33,.72c-.07,.18-.08,.38-.14,.56-.06,.18-.03,.39-.2,.52-.16-.4-.11-.81-.1-1.22,.01-.52-.04-1.05,.05-1.56,.16-.98,.17-1.98,.35-2.96,.18-.98,.37-1.95,.55-2.94,.04-.24,.14-.47,.09-.73-.14-.07-.21,.03-.25,.12-.18,.4-.36,.8-.45,1.24-.16,.7-.24,1.42-.48,2.1-.08,.22-.02,.49-.06,.74-.18,1.14-.3,2.29-.32,3.45,0,.1-.06,.2-.1,.33-.32-.57-.42-1.08-.56-2.59-.09-.87-.15-1.75-.16-2.68-.21,.52-.25,.73-.24,1.22,.02,1.13,.05,2.26,.26,3.38,.02,.1,.03,.22-.08,.32-.2,0-.3-.18-.45-.35-.17-.97-.6-1.9-.88-2.88-.15-.53-.22-1.08-.35-1.61-.01-.05-.02-.11-.01-.17,.09-.71,.02-1.43,.17-2.14,.1-.46,.2-.91,.5-1.34,.09-.09,.19-.22,.33-.32,.77-.56,1.18-1.37,1.63-2.16,.23-.41,.45-.82,.68-1.22,.18-.33,.42-.57,.83-.78,.89,.11,1.58,.63,2.29,1,.16,.17,.19,.34,.25,.49,.24,.74,.32,1.51,.42,2.27,.01,.13,.02,.28,0,.41-.14,.73-.17,1.48-.49,2.17-.18,.39-.24,.84-.36,1.26-.28,.94-.57,1.75-1.02,2.5-.68,1.14-1.19,2.35-1.68,3.58m-.6,11.39c-.18,.01-.3-.12-.45-.21-.76-.44-1.57-.82-2.45-.97-.61-.1-1.15-.39-1.7-.64-.35-.16-.69-.32-1.03-.49-.03,.08-.05,.13-.08,.19,.31,.35,.76,.54,1.17,.73,.42,.19,.86,.37,1.32,.48,.62,.14,1.21,.38,1.78,.66,.24,.12,.5,.23,.6,.51-.27,.12-.43-.11-.64-.14-.88-.03-1.76-.03-2.64-.17-.88-.13-1.73-.36-2.66-.75-.22-.16-.55-.36-.85-.6-.42-.32-.75-.72-1.03-1.17-.43-.71-.75-1.47-1.12-2.21-.01-.02,0-.05,.01-.08,.04-.02,.08-.05,.16-.09,.18,.14,.39,.28,.58,.43,.48,.39,1.05,.6,1.62,.82,1.08,.4,2.21,.52,3.32,.74,.8,.16,1.55,.45,2.25,.83,.86,.47,1.53,1.15,1.98,2.03-.07,.05-.11,.08-.14,.12m-5.18,5.83c-.54,.14-1.08,.14-1.64,.05-.76-.13-1.5-.34-2.24-.59-.47-.16-.91-.43-1.27-.77-.72-.67-1.45-1.34-2.1-2.09-.07-.08-.11-.18-.19-.32,.16,0,.28,0,.37,.02,.59,.14,1.2,.21,1.76,.45,.28,.12,.6,.18,.89,.17,.95-.04,1.86,.22,2.73,.36,.95,.43,1.62,1.12,2.28,1.81-.07,.18-.2,.13-.28,.1-.95-.42-1.97-.52-2.97-.7-.07-.01-.14,.01-.31,.04,1.2,.35,2.33,.61,3.38,1.11,.09,.04,.16,.13,.27,.22-.26,.05-.48,.09-.69,.14m-4.2,16.15c.25,.18,.49,.38,.73,.57,.19,.15,.38,.31,.56,.46,.07,.05,.14,.1,.2,.15,.1,.08,.2,.17,.21,.33-.05,.01-.11,.05-.16,.04-.59-.1-1.18-.19-1.77-.31-.17-.03-.34-.07-.52-.11-.11-.03-.22-.05-.33-.09-.63-.19-1.22-.48-1.77-.87-.41-.29-.81-.59-1.2-.9-.13-.1-.26-.2-.38-.3-.02-.01-.04-.03-.05-.05-.21-.18-.39-.39-.58-.6-.93-1.05-1.85-2.11-2.7-3.23-.01-.02,0-.05,0-.08,.05-.01,.11-.05,.16-.03,.44,.16,.87,.34,1.31,.51,.08,.03,.16,.06,.24,.07,.74,.11,1.43,.41,2.16,.58,.31,.07,.57,.22,.84,.34,.62,.29,1.25,.57,1.84,.95,.22,.14,.44,.3,.65,.47,.28,.22,.54,.47,.78,.73,.09,.09,.17,.18,.25,.27,.47,.54,.89,1.11,1.27,1.73,0,0,0,0,0,0-.08,0-.15,.04-.18,.01-.02-.02-.04-.04-.06-.05-.92-.79-1.91-1.5-2.94-2.13-.02,0-.04,0-.06,0-.13,.02-.26,.05-.4,.08,.67,.44,1.28,.96,1.92,1.44m4.14,14.62c1.18-.03,2.37-.08,3.56-.11,.05,0,.1,.03,.16,.04,.06,.05,.05,.08-.02,.12-.78,.43-1.6,.75-2.42,1.08-.66,.26-1.35,.3-2.04,.16-.79-.15-1.57-.33-2.37-.46-.6-.1-1.17-.32-1.78-.36-.16-.01-.31-.12-.51-.19-.54,.05-1.1-.07-1.66-.21,.04-.16,.13-.21,.24-.24,1.26-.32,2.47-.82,3.69-1.27,.16-.06,.32-.12,.48-.13,1.3-.1,2.59-.14,3.87,.15,.34,.08,.67,.26,1.04,.23,.48,.2,.96,.4,1.63,.68-1.67,.2-3.16,.21-4.77,.31,.37,.18,.65,.2,.91,.19m5.57-3.63c-.15-.13-.22-.17-.25-.23-.26-.67-.5-1.34-.65-2.04-.13-.64-.17-1.31-.22-1.96-.04-.58,.08-1.15,.1-1.73,.05-1.11,.3-2.18,.45-3.27,.03-.19,.01-.38,.03-.57,.02-.25,.05-.49,.08-.74,.03-.19,.04-.38,.2-.58,.07,.17,.12,.31,.17,.46,.5,1.55,.81,3.15,1.11,4.74,.14,.75,.15,1.53,.16,2.3,.02,1.04-.21,2.02-.45,3.01-.01,.05-.06,.09-.09,.13-.08-.32-.09-.65-.09-.98,.01-1.27-.14-2.52-.56-3.72-.09,.01-.14,.03-.22,.04,.2,1.68,.44,3.36,.23,5.14m8.47-8.08c.22-.69,.57-1.31,.83-1.98,.09-.25,.24-.49,.4-.72,.56-.82,1.12-1.64,1.83-2.34,.92-.91,1.86-1.81,2.84-2.66,.96-.83,2.01-1.56,3.07-2.26,.64-.43,1.3-.83,1.96-1.24,.06-.04,.15-.04,.23-.05,.02,.06,.06,.12,.04,.15-.45,.73-.84,1.49-1.24,2.25-.51,.97-1.14,1.86-1.88,2.66-.04-.11-.08-.23-.11-.34-.05-.18-.12-.35-.21-.5-.04-.06-.08-.13-.12-.18-.04-.02-.08-.04-.12-.04-.11-.03-.2,0-.27,.1,0,.05,0,.1,0,.15-.02,.02-.04,.04-.07,.06-.49,.44-.99,.87-1.52,1.28-1,.78-1.98,1.59-2.85,2.51-1.19,1.26-2,2.77-2.73,4.32-.14,.3-.27,.6-.4,.9-.01-.72,.12-1.38,.33-2.04m7.48-5.6c-.12,.12-.25,.23-.38,.35-.75,.66-1.58,1.21-2.4,1.77-.75,.52-1.44,1.11-2.1,1.74-.42,.4-.77,.86-1.09,1.34-.09,.14-.19,.27-.29,.41-.12-.16-.08-.3-.01-.41,.19-.33,.39-.66,.61-.98,.69-1.04,1.54-1.95,2.51-2.74,.87-.72,1.74-1.44,2.61-2.17,.11-.09,.22-.19,.33-.29,.03,.23,.07,.46,.13,.69,.03,.1,.05,.19,.08,.29m-8.05,10.27c.28-.72,.53-1.44,.96-2.09,.18-.28,.32-.58,.47-.87,.5-.99,1.2-1.86,1.86-2.73,.77-1.01,1.84-1.66,2.82-2.43,.73-.35,1.34-.87,1.96-1.38,.05-.04,.09-.08,.14-.12,.09,.4,.14,.8,.16,1.22,0,.09,0,.18,.03,.26,.07,.19,.06,.38,.06,.57,0,.37,.02,.74,.01,1.1,0,.39,.04,.77-.07,1.15-.02,.06,0,.14,0,.21-.02,.4-.02,.8-.07,1.2-.06,.48-.03,.97-.09,1.46-.04,.27-.03,.56-.02,.84,.01,.3-.05,.59-.01,.88,.04,.27,.03,.56,.04,.84,0,.07,0,.14,.01,.21,.13,.65,.21,1.31,.34,1.96,.07,.38,.16,.75,.26,1.12,.05,.2,.12,.4,.18,.6,.03,.1,.06,.2,.1,.3,.15-.07,.3-.14,.45-.21,.27-.12,.55-.24,.82-.35,.04-.01,.09,.03,.14,.05,.04,.13-.07,.2-.13,.27-.2,.24-.4,.48-.6,.72-.11,.14-.23,.27-.35,.41-.09,.11-.19,.22-.29,.32-1.02,1.12-2.02,2.26-2.96,3.44-.31,.39-.62,.78-.94,1.17-.18-.39-.34-.8-.49-1.21-.05-.13-.09-.26-.13-.39-.07-.22-.14-.44-.21-.66-.05-.15-.09-.3-.14-.45-.05-.16-.1-.31-.14-.47-.08-.26-.14-.53-.19-.8-.04-.23-.17-.42-.28-.59-.13-.04-.23-.05-.34,.05,0,.1-.01,.22-.01,.34,0,.54,.01,1.08,.03,1.61-.26,.2-.52,.4-.76,.62-.48,.46-.99,.88-1.37,1.43-.36,.52-.72,1.04-.97,1.63-.07,.17-.15,.34-.37,.43,.03-.54,.05-1.05,.08-1.57,.04-.63,.1-1.26,.12-1.9,.03-.85,.03-1.7,.02-2.55,0-.77-.03-1.53-.07-2.3-.05-.8-.15-1.59-.17-2.39-.01-.34,.01-.67,.13-.98m3.36,8.85c-.08,.25-.08,.51-.08,.76-.35,.28-.7,.57-1.04,.87-.42,.36-.78,.78-1.14,1.2-.19,.22-.4,.42-.65,.68,0-.17-.02-.26,0-.32,.42-1.03,.93-2,1.73-2.79,.38-.38,.78-.73,1.18-1.07,0,.1,0,.2,0,.3,0,.12,.02,.26-.01,.37m-3.36,4.73c.89-1.17,1.85-2.27,3.04-3.16,.09-.07,.17-.14,.25-.21,0,.1,0,.21-.03,.3-.1,.46-.08,.91-.05,1.36,0,.11,.01,.22,.02,.33-.27,.22-.55,.42-.84,.61-.84,.53-1.66,1.11-2.48,1.66-.11,.07-.2,.18-.4,.13,.13-.36,.26-.72,.5-1.03m-.78,15.28c-.16,.29-.34,.59-.58,.81-.71,.63-1.28,1.37-1.84,2.13-.36,.49-.74,.96-1.12,1.44-.07,.1-.15,.23-.32,.17-.07-.17,0-.33,.03-.49,.28-1.21,.55-2.41,.86-3.61,.07-.29,.24-.56,.18-.87-.01-.05,.03-.1,.04-.16,.3-.86,.56-1.73,.76-2.61,.08-.32,.17-.64,.31-.89,0-.24-.05-.46,.03-.62,.18-.35,.13-.75,.26-1.11,.13-.35,.16-.75,.24-1.12,.13-.62,.25-1.24,.44-1.85,.36-1.16,.54-2.36,.76-3.56,.05-.3,.11-.6,.17-.9,.19-.17,.36-.36,.55-.5,.62-.43,1.22-.87,1.87-1.25,.48-.28,.95-.57,1.39-.89,.03,.39,.06,.79,.13,1.18-.07,.21,.05,.41,.03,.62-.02,.21,.01,.42,.03,.63,.02,.21,.07,.41,.09,.62,.05,.43,.07,.87,.15,1.3,.05,.27,.04,.56,.13,.83,.14,.47,.25,.94,.37,1.42,.02,.09,.05,.17,.07,.26-.44,.4-.8,.88-1.12,1.42-.32,.56-.54,1.14-.68,1.79-1.01,1.15-1.63,2.52-2.25,3.91-.29,.65-.64,1.28-.99,1.9m5.17-7.86c-.45,.41-.88,.82-1.36,1.27,0-.13-.03-.22,0-.29,.32-.72,.75-1.35,1.32-1.84,.07,.23,.15,.46,.24,.69-.07,.06-.13,.12-.2,.18m.42,.35c.12,.27,.23,.53,.34,.8-.46,.22-.93,.43-1.43,.56-.03,0-.05,0-.07-.01-.09-.08-.06-.17,0-.22,.39-.38,.78-.75,1.17-1.12m1.82,4.03c-.5,.35-1.03,.64-1.61,.86-.67,.25-1.33,.54-1.97,.88-1,.53-2,1.05-2.99,1.62-.06,.04-.15,.01-.24,.01,.55-1.41,2.06-4.14,2.79-5.05,.88-.32,1.75-.68,2.61-1.06,.04-.02,.08-.04,.12-.06,.1,.21,.21,.41,.33,.61,.19,.31,.36,.64,.55,.96,.21,.36,.43,.71,.66,1.05-.09,.06-.18,.12-.26,.18m2.16,1.74c-.12-.14-.22-.29-.33-.43-.09-.12-.18-.24-.27-.36-.08-.1-.15-.2-.22-.3-.14-.19-.28-.38-.41-.57-.11-.16-.21-.31-.32-.47-.24-.38-.47-.76-.69-1.15-.21-.38-.43-.76-.64-1.14-.05-.1-.11-.21-.16-.32-.07-.14-.14-.27-.2-.42-.1-.23-.2-.46-.29-.69-.03-.08-.07-.16-.1-.24-.06-.14-.13-.29-.18-.43,0-.02-.01-.04-.02-.06-.05-.14-.08-.3-.13-.44-.03-.09-.06-.18-.09-.26-.03-.1-.06-.21-.09-.31-.16-.58-.28-1.17-.42-1.76-.07-.27-.02-.56-.13-.82,.01-.58-.18-1.14-.16-1.72,0-.09,0-.18-.02-.26-.07-.19-.06-.38-.07-.57-.02-.35-.04-.69-.09-1.04-.03-.23-.04-.46-.05-.68,0-.21,0-.42-.01-.63,0-.07,0-.14-.01-.22-.01-.19-.03-.38-.01-.57,.02-.43-.01-.87,.13-1.29,0-.02,.04-.04,.07-.08,.06,.52,.16,1.02,.25,1.52,.05,.27,.1,.55,.14,.82,0,.01,0,.03,0,.04,.05,.33,.18,.64,.27,.96,.07,.25,.14,.5,.18,.76,.04,.29,.13,.58,.23,.86,.2,.56,.41,1.12,.64,1.66,.29,.69,.59,1.38,.89,2.07,.04,.09,.08,.18,.12,.27,.05,.1,.09,.21,.13,.31,.19,.44,.37,.88,.56,1.32,.02,.04,.04,.08,.05,.13,.05,.12,.11,.25,.15,.38,.09,.25,.17,.5,.25,.76,.1,.32,.22,.62,.33,.94,.21,.57,.37,1.16,.43,1.77,0,.02,0,.04,.01,.06,.02,.12,.06,.23,.09,.35,.01,.05,.02,.1,.03,.15,.09,.42,.17,.85,.26,1.27,.03,.15,.07,.31,.1,.47,.01,.05,.02,.09,.02,.14,.02,.14,.03,.28,.02,.42-.16,.03-.2-.09-.26-.16m.51-1.74c-.13-.12-.16-.26-.17-.43,0-.01,0-.03,0-.04-.01-.16-.04-.32-.07-.48-.03-.13-.07-.27-.1-.4-.07-.29-.09-.59-.2-.87-.22-.62-.43-1.25-.64-1.88-.08-.23-.17-.47-.26-.7-.07-.18-.15-.35-.22-.53-.14-.34-.3-.66-.45-1-.06-.14-.12-.29-.18-.44-.03-.09-.07-.18-.1-.27-.01-.04-.03-.07-.04-.11-.22-.5-.45-.99-.66-1.49-.2-.48-.44-.95-.57-1.46,0-.02,0-.04-.01-.05-.33-.53-.38-1.15-.52-1.74-.07-.31-.16-.61-.25-.91-.07-.25-.14-.49-.17-.74-.01-.06-.02-.12-.02-.18-.02-.24-.06-.48-.12-.71h0c-.11-.43-.2-.86-.22-1.29,0-.1-.03-.2-.06-.3h0c-.04-.16-.04-.32-.04-.51v-.05s.02,.01,.03,.02c.1,.06,.08,.17,.12,.24,.03,.04,.05,.08,.08,.13,.03,.05,.04,.1,.05,.16,.06,.32,.21,.6,.35,.87,.04,.08,.08,.16,.12,.25,.12,.25,.22,.5,.34,.75,.16,.35,.32,.7,.51,1.04,.41,.73,.82,1.47,1.22,2.2,.34,.63,.65,1.28,.91,1.95,.15,.4,.29,.82,.41,1.23,.03,.1,.06,.19,.09,.29,.08,.28,.15,.57,.22,.85,.04,.18,.08,.35,.12,.53,0,.01,0,.03,.01,.05,.03,.12,.05,.24,.09,.36,.07,.22,.09,.44,.11,.67,.04,.34,.09,.69,.14,1.04,.04,.24,.07,.48,.08,.73,0,.1,0,.21,.02,.31,.03,.15,.08,.3,.08,.46,0,.51,.01,1.01,.01,1.52,0,.15,0,.3,0,.45,0,.13,0,.26,0,.4,0,.03-.03,.05-.04,.08m-.44-7.64c.21-.1,.43-.2,.64-.3,.1,.09,.08,.17,.03,.24-.17,.22-.34,.44-.5,.66-.05-.2-.1-.39-.16-.59m1.46,10.61c-.09,.57-.14,1.14-.18,1.72,0,.09-.01,.17-.04,.26-.01,.04-.07,.08-.1,.12-.03-.04-.06-.06-.06-.09,0-.47-.16-.92-.05-1.4,.03-.12,.02-.25-.01-.36-.1-.36-.08-.73-.09-1.09,0-.14-.01-.29,0-.44,.22,.07,.43,.15,.64,.25-.04,.35-.05,.7-.11,1.05m-.1-1.69c-.15-.04-.29-.08-.43-.12,0-.26,0-.52,0-.78,0-.29-.03-.59,0-.87,.29,.02,.57,.09,.84,.25,.01,0,.03,0,.04,.01-.02,.14-.03,.29-.04,.44,0,.14-.02,.28-.03,.42-.03,.26-.07,.52-.1,.79-.02,0-.03-.01-.05-.03-.07-.04-.14-.09-.22-.11m1.33,1.99c-.2,.72-.36,1.46-.56,2.18-.13,.47-.23,.94-.45,1.39-.02-.05-.05-.08-.05-.11-.01-.14-.03-.28-.01-.42,.02-.3,.06-.59,.08-.88,.04-.51,.07-1.01,.11-1.52,0-.03,0-.07,.01-.1,.1-.5,.1-1.01,.17-1.51,0-.06,.01-.12,.02-.17,.29,.14,.58,.3,.87,.46-.07,.23-.12,.46-.19,.68m3.74,.9c-.15-.03-.24-.02-.3-.06-.21-.13-.42-.26-.63-.39,.08-.06,.17-.12,.25-.18,.1-.07,.2-.14,.3-.21,.01,.01,.02,.02,.03,.03,.18,.21,.33,.45,.36,.8m15.34-16.99c-.06,.14-.12,.29-.2,.43-.29,.53-.59,1.07-.88,1.6-.25,.46-.56,.88-.86,1.31-.33,.47-.67,.94-1.03,1.39-.31,.39-.64,.78-.97,1.17-.31,.36-.63,.71-.93,1.07-.53,.63-1.09,1.23-1.67,1.81-.55,.56-1.1,1.13-1.67,1.68-.34,.33-.68,.65-1.05,.95-.43,.35-.85,.73-1.31,1.05-.62,.43-1.22,.88-1.86,1.27-.84,.52-1.67,1.04-2.51,1.54-.25,.15-.5,.3-.75,.46-.09,.05-.17,.11-.25,.16-.13,.08-.25,.17-.37,.26-.09,.06-.18,.13-.27,.19-.11,.08-.22,.16-.33,.23-.46,.32-.91,.65-1.33,1.02-.12,.1-.25,.18-.37,.27,.15-.53,.36-.99,.61-1.43,.07-.12,.14-.23,.21-.35,.07-.12,.14-.24,.21-.36,.21-.34,.42-.68,.63-1.01,.06-.09,.12-.18,.18-.28,.12-.18,.23-.35,.35-.52,.35-.5,.72-.99,1.08-1.48,.33-.46,.72-.86,1.08-1.28,.43-.51,.92-.96,1.38-1.44,.43-.44,.91-.82,1.36-1.23,.31-.28,.64-.55,.97-.81,.27-.22,.55-.44,.83-.64,.88-.61,1.75-1.23,2.64-1.82,.53-.35,1.03-.72,1.57-1.05,.48-.3,.92-.63,1.38-.96,.73-.52,1.43-1.07,2.13-1.62,.6-.46,1.14-.98,1.69-1.5,.09-.08,.18-.16,.26-.23,.07,.05,.08,.11,.06,.16m-17.81,13.86c.04-.09,.08-.17,.12-.26,0-.02,.02-.04,.03-.06,.13-.3,.25-.61,.39-.9,.25-.5,.51-1,.79-1.48,.18-.32,.39-.62,.58-.94,.41-.73,.97-1.33,1.57-1.9,.48-.46,.98-.9,1.5-1.32,.35-.29,.74-.53,1.1-.8,.17-.12,.33-.26,.51-.37,.88-.55,1.74-1.11,2.63-1.64,.79-.46,1.6-.88,2.4-1.32,.88-.48,1.76-.96,2.63-1.44,.95-.53,1.9-1.06,2.79-1.69,.13-.09,.25-.19,.38-.29,.04-.03,.09-.05,.15,0-.02,.04-.04,.08-.07,.12-.09,.1-.2,.2-.3,.3-.35,.4-.75,.73-1.16,1.07-.97,.81-1.99,1.55-3,2.3-.88,.64-1.79,1.22-2.7,1.82-.32,.21-.63,.45-.95,.65-.52,.33-1,.7-1.5,1.07-.72,.53-1.42,1.09-2.1,1.66-.74,.62-1.41,1.31-2.09,1.99-.59,.59-1.13,1.24-1.65,1.9-.45,.59-.88,1.19-1.29,1.8-.06,.09-.12,.18-.19,.27-.07,.11-.14,.22-.22,.33-.17,.26-.33,.52-.48,.78-.07,.12-.14,.25-.21,.37-.09,.16-.19,.32-.28,.47-.05,.09-.11,.17-.23,.36,0-.19-.01-.24,0-.29,.07-.25,.14-.49,.21-.73,.04-.14,.08-.28,.13-.42,.05-.18,.12-.37,.18-.55,.1-.29,.23-.57,.36-.85m-.36-.31c-.15,.35-.3,.7-.45,1.05-.05,.13-.1,.27-.15,.4-.01-.01-.03-.02-.05-.03-.29-.18-.59-.34-.9-.51,.01-.14,.03-.29,.05-.43,.08-.43,.08-.87,.14-1.3,.5,.19,.94,.48,1.35,.81m-.14-9.01c-.18,.53-.34,1.06-.46,1.61-.06,.29-.18,.57-.21,.86-.08,.62-.25,1.23-.35,1.85-.11,.63-.28,1.26-.38,1.89-.05,.3-.08,.59-.12,.88-.03,.18-.06,.37-.08,.56-.3-.1-.61-.18-.92-.23,0-.18-.03-.35-.03-.53,0-.44-.01-.87-.03-1.31,0-.16-.02-.31-.04-.47-.06-.43-.14-.86-.17-1.29-.04-.56-.13-1.11-.26-1.65-.03-.13-.06-.26-.09-.38,.31-.41,.64-.81,.96-1.21,.14-.18,.26-.36,.18-.57-.11-.12-.22-.14-.33-.1-.32,.1-.64,.18-.94,.33-.09,.04-.18,.08-.27,.13-.07-.24-.14-.48-.22-.71-.3-.92-.75-1.76-1.2-2.61-.35-.66-.74-1.31-1.08-1.98-.22-.42-.42-.86-.63-1.29,.01-.01,.03-.03,.04-.04,.79-.92,1.48-1.93,2.24-2.87,.3-.63,.8-1.12,1.21-1.67,.17-.23,.34-.46,.52-.68,0,0,0,.01,0,.02,.2,.44,.4,.89,.66,1.31,.23,.37,.43,.76,.64,1.14,.32,.61,.54,1.25,.78,1.89,.09,.25,.17,.49,.24,.75,.17,.64,.3,1.29,.4,1.95,.05,.36,.1,.73,.14,1.09,.04,.4-.03,.81,.06,1.2-.07,.21,.03,.42,.01,.62-.03,.52-.09,1.04-.27,1.54m.45-5.75c-.05,.01-.09,.02-.13,.03-.05-.18-.12-.36-.16-.55-.07-.43-.23-.84-.4-1.24-.18-.44-.34-.88-.51-1.32-.08-.21-.19-.41-.31-.6-.22-.36-.42-.73-.62-1.09-.08-.15-.16-.31-.25-.46-.16-.3-.3-.62-.42-.94,.43-.55,.87-1.1,1.3-1.65,.06-.07,.06-.14,0-.27-.31-.04-.61,.07-.92,.18-.3,.11-.59,.23-.88,.35-.04-.12-.08-.23-.11-.36-.1-.46-.25-.91-.29-1.38-.01-.19-.07-.38-.11-.56-.13-.56-.2-1.13-.23-1.71,0-.16-.01-.31-.05-.47-.04-.22-.07-.46-.03-.68,.05-.26,.04-.52,.05-.78,.02-.31,0-.63,.08-.94,.04-.2,.01-.42,.02-.63,0-.24,0-.48,.07-.73,.05-.2,.02-.42,.03-.63,.01-.49-.04-.98,.05-1.47,.03-.14-.04-.3-.05-.46,0-.08-.03-.17,.05-.23,.09,.04,.13,.12,.14,.21,.03,.56,.19,1.1,.25,1.65,.02,.14,.07,.27,.11,.4,.26,.98,.5,1.96,.84,2.91,.3,.82,.55,1.65,.71,2.52,.04,.24,.14,.47,.2,.7,.19,.78,.47,1.54,.63,2.32,.07,.32,.1,.65,.15,.98,.04,.26,.06,.52,.13,.77,.05,.16,.06,.31,.08,.46,.02,.3,.05,.59,.11,.88,.1,.46,.15,.93,.22,1.39,0,.02,0,.04,0,.05,0,.58,.14,1.14,.14,1.72,0,.17,.04,.35,.05,.52,.02,.36,.08,.72,.04,1.07m.53-1.76c-.01,.1,.01,.21-.06,.3-.03,0-.06-.01-.11-.02-.04-.29-.04-.59-.05-.88-.01-.21,.01-.42-.08-.62-.02-.04-.02-.1-.02-.16,0-.53-.14-1.03-.2-1.55-.05-.38-.11-.76-.16-1.14-.07-.55-.17-1.1-.26-1.65-.1-.57-.23-1.12-.39-1.68-.09-.3-.16-.61-.25-.91-.19-.58-.3-1.18-.45-1.77-.16-.59-.37-1.17-.56-1.75-.15-.46-.35-.91-.44-1.39-.15-.77-.42-1.51-.51-2.3-.03-.26-.11-.51-.16-.77-.05-.26-.09-.51-.03-.77,.12,.03,.16,.1,.2,.18,.29,.52,.58,1.04,.85,1.56,.32,.62,.61,1.25,.86,1.9,.2,.52,.43,1.04,.61,1.56,.32,.94,.74,1.85,.99,2.81,.1,.39,.26,.76,.38,1.14,.14,.45,.28,.9,.4,1.35,.05,.18,.03,.38,.05,.57,.02,.26-.02,.53,.07,.78-.02,.16-.05,.26-.05,.36,0,.58-.09,1.14-.18,1.71-.04,.27-.09,.55-.08,.83,0,.16-.01,.32-.06,.46-.15,.45-.15,.93-.26,1.39-.03,.13-.01,.28-.03,.42"/></g></svg>